<svg xmlns="http://www.w3.org/2000/svg" width="3840" height="2160"><path d="m948.89 133.797 4.402-.021c4.653-.02 9.305-.024 13.958-.026l2.401-.002c23.912-.012 47.583.38 71.349 3.252l3.805.422c83.195 9.263 166.497 36.518 243.039 100.605 2.018 1.847 4.077 3.632 6.156 5.41 7.574 6.61 14.563 13.846 21 21.563l1.37 1.631c13.523 16.154 25.125 33.113 35.63 51.369l1.124 1.926c47.12 81.306 45.171 182.668 22.142 270.996-12.77 47.103-31.683 93.14-55.83 135.556a1137.878 1137.878 0 0 0-4.42 7.858C1300.074 760.944 1283.16 786.485 1265 811l-1.546 2.092c-9.567 12.922-19.386 25.594-29.833 37.818-2.444 2.866-4.818 5.784-7.184 8.715-3.875 4.763-7.95 9.309-12.105 13.828a311.316 311.316 0 0 0-5.77 6.485c-6.375 7.324-12.908 14.522-19.849 21.316-1.703 1.736-3.28 3.533-4.858 5.383-4.068 4.675-8.4 9.055-12.793 13.426l-2.302 2.314a239.747 239.747 0 0 1-12.985 12.066c-2.37 2.08-4.575 4.298-6.775 6.557-3.512 3.55-7.09 6.92-10.883 10.164-2.523 2.188-4.973 4.449-7.43 6.711-4.542 4.147-9.228 8.057-14.015 11.918-2.57 2.123-5.031 4.325-7.485 6.582-4.375 3.983-8.934 7.643-13.606 11.266a504.991 504.991 0 0 0-11.25 9c-15.58 12.811-31.919 24.645-48.331 36.359l-2.191 1.566c-9.812 7.004-19.725 13.829-29.809 20.434-.633.415-1.266.83-1.917 1.259-20.288 13.295-40.892 25.99-61.982 37.974a1291.61 1291.61 0 0 0-8.624 4.966c-17.159 9.902-34.78 18.909-52.477 27.801l-1.947.978c-71.518 35.88-148.466 63.95-226.555 81.46-1.454.327-2.906.666-4.35 1.036-56.75 13.896-115.84 20.27-174.148 21.526l-2.997.07c-77.206 1.608-154.717-11.198-226.003-41.07l-2.478-1.026c-13.001-5.413-25.294-12.005-37.522-18.974l-2.636-1.501c-24.61-14.135-47.328-31.376-67.364-51.499a3725.088 3725.088 0 0 0-3.672-3.602c-7.601-7.48-14.826-14.93-21.328-23.398l-2.41-3.035C95.156 1074.759 86.292 1060.629 78 1046l-1.086-1.905C31.972 964.644 32.131 866.33 56.528 770.589 80.847 683.878 125.852 604.714 181 534l2.672-3.45c4.982-6.409 10.073-12.701 15.35-18.87a390.99 390.99 0 0 0 8.29-10.055c4.868-5.99 10.16-11.559 15.45-17.172 4.188-4.448 8.2-9.034 12.136-13.707l1.915-2.246 1.707-2.031C240 465 240 465 242 465l.623-1.608c1.95-3.388 4.656-5.935 7.416-8.662l1.817-1.815c1.27-1.268 2.543-2.533 3.818-3.795a1703.3 1703.3 0 0 0 5.767-5.747c5.54-5.522 11.073-10.991 17.033-16.063 1.948-1.672 3.744-3.464 5.526-5.31 3.15-3.193 6.412-6.172 9.813-9.094 2.542-2.215 5.018-4.497 7.5-6.781 4.542-4.147 9.228-8.057 14.015-11.918 2.57-2.123 5.031-4.325 7.485-6.582 4.37-3.978 8.923-7.634 13.588-11.253 4.633-3.597 9.187-7.281 13.724-10.997 10.749-8.77 21.928-16.902 33.188-24.996 3.01-2.166 6.01-4.344 9-6.54C404.613 324.832 417.259 316.375 430 308l2.307-1.522c29.123-19.197 59.272-36.637 90.034-53.057 2.409-1.287 4.812-2.585 7.214-3.886C564.517 230.723 601.029 214.43 638 200l1.862-.727c78.585-30.635 161.364-52.82 266.697-63.511l2.133-.192a488.003 488.003 0 0 1 40.199-1.773ZM1732 673c1.312 3.937.365 4.963-1.402 8.66l-1.674 3.542-1.861 3.86c-.638 1.342-1.275 2.683-1.91 4.025-1.35 2.846-2.704 5.689-4.062 8.53-3.077 6.44-6.109 12.902-9.144 19.362a8238.437 8238.437 0 0 1-3.054 6.487 4291.15 4291.15 0 0 0-12.33 26.409c-5.33 11.514-10.74 22.988-16.166 34.456A3805.487 3805.487 0 0 0 1666.5 818c-5.308 11.473-10.697 22.906-16.104 34.332a4093.628 4093.628 0 0 0-15.427 32.981c-3.083 6.658-6.198 13.3-9.34 19.93l-1.146 2.417a6563.092 6563.092 0 0 1-5.573 11.735c-4.175 8.788-8.156 17.628-11.91 26.605 8.509-5.135 16.76-10.46 24.75-16.375 33.145-24.373 73.261-42.592 115.027-42.828l2.456-.017c1.706-.01 3.413-.016 5.12-.02 2.547-.01 5.094-.04 7.641-.072 25.25-.164 52.621 4.94 72.006 22.312l2.488 2.172c15.22 14.133 21.935 34.218 22.73 54.64.619 24.975-5.3 47.95-15.924 70.446-1.5 3.179-2.981 6.366-4.462 9.554a5694.352 5694.352 0 0 1-7.187 15.399A6188.105 6188.105 0 0 0 1821.5 1083a16382.048 16382.048 0 0 1-17.858 38.342c-2.028 4.34-4.052 8.683-6.076 13.025-13.027 27.955-26.085 55.894-39.566 83.633l-1.234 2.555c-10.741 22.21-24.168 36.939-47.782 45.254-10.812 3.328-21.243 3.456-32.46 3.386l-5.339-.008a4438.6 4438.6 0 0 1-13.957-.05c-4.76-.02-9.519-.03-14.279-.04-9.316-.02-18.633-.055-27.949-.097l-1-2c.778-2.163.778-2.163 2.078-4.914l1.49-3.181 1.682-3.53 1.755-3.729c1.634-3.47 3.28-6.935 4.927-10.4 1.09-2.29 2.176-4.584 3.263-6.877 3.96-8.358 7.928-16.713 11.903-25.064 4.686-9.847 9.36-19.7 14.027-29.555l1.121-2.367a28543.965 28543.965 0 0 0 33.677-71.354 12774.108 12774.108 0 0 1 17.221-36.442c5.976-12.606 11.932-25.22 17.86-37.849a3866.622 3866.622 0 0 1 9.453-20c1.556-3.267 3.11-6.535 4.664-9.804.74-1.556 1.484-3.112 2.228-4.666 10.616-21.05 10.616-21.05 9.839-44.045-4.154-8.437-11.561-12.942-20.126-16.16-27.25-8.45-56.894 1.15-81.128 13.816-16.256 8.69-31.007 19.032-44.383 31.746C1603 985 1603 985 1600.367 987.094c-3.607 2.905-6.386 6.378-9.367 9.906l-2.25 2.555c-15.7 18.166-26.162 38.787-36.133 60.454-4.386 9.53-8.869 19.013-13.367 28.491l-2.307 4.866c-3.053 6.439-6.108 12.876-9.165 19.312a12234.367 12234.367 0 0 0-7.53 15.881c-5.383 11.382-10.62 22.824-15.797 34.301-6.039 13.374-12.395 26.582-18.84 39.765-2.454 5.028-4.837 10.087-7.211 15.153-11.05 23.464-23.945 39.243-48.81 48.195-4.213 1.205-8.395 2.064-12.715 2.777l-2.11.35c-15.965 2.32-32.34 2.087-48.432 2.085-3.253.003-6.506.02-9.759.04-2.084.003-4.17.005-6.254.005l-2.923.022c-4.563-.015-8.264-.056-12.397-2.252.566-4.336 1.624-7.812 3.484-11.762l1.565-3.347 1.701-3.579 1.764-3.753c4.47-9.502 9.032-18.959 13.608-28.41 3.873-8.013 7.647-16.068 11.378-24.149 4.251-9.208 8.58-18.372 13-27.5 4.289-8.86 8.499-17.75 12.625-26.688 5.319-11.516 10.736-22.983 16.188-34.437a8572.989 8572.989 0 0 0 21.73-45.96l.979-2.084c3.795-8.073 7.605-16.14 11.416-24.206l1.067-2.26a190802.457 190802.457 0 0 1 16.057-33.99l1.068-2.26a23622.283 23622.283 0 0 0 16.36-34.72c5.16-10.97 10.331-21.934 15.51-32.895 7.521-15.92 15.022-31.85 22.516-47.782l8.984-19.093 2.994-6.362a30176.42 30176.42 0 0 1 13.179-27.984l2.024-4.295c3.467-7.355 6.92-14.715 10.31-22.105 11.732-25.566 23.836-50.057 42.493-71.379l2.2-2.531A389.545 389.545 0 0 1 1606 718l2.191-2.39c34.517-36.21 76.012-43.237 123.809-42.61ZM950.063 1332.875l2.902-.014a503499547.206 503499547.206 0 0 1 5.09.01C960 1333 960 1333 962 1334c-.642 4.649-2.518 8.568-4.543 12.746l-1.09 2.286c-.776 1.624-1.553 3.246-2.333 4.867-1.657 3.444-3.301 6.893-4.947 10.341a8154.13 8154.13 0 0 1-2.51 5.256 2314.131 2314.131 0 0 0-10.64 22.629 5647.286 5647.286 0 0 1-15.5 33A4125.764 4125.764 0 0 0 905.5 1457c-4.89 10.565-9.837 21.1-14.813 31.625l-1.084 2.295-4.354 9.208c-9.182 19.416-18.33 38.847-27.358 58.336-6.582 14.201-13.238 28.368-19.891 42.536 7.804-4.763 15.545-9.551 22.938-14.938C907.3 1552.42 960.39 1534.475 1018 1543c23.379 3.972 44.436 13.907 59.121 33.16 14.548 21.988 16.399 50.002 11.316 75.402-.724 3.174-1.558 6.304-2.437 9.438l-.603 2.296c-4.539 16.91-12.675 32.492-20.26 48.188a1048.84 1048.84 0 0 0-9.012 19.204l-2.855 6.207-1.541 3.35c-3.627 7.882-7.271 15.756-10.917 23.63l-1.228 2.653a5281.849 5281.849 0 0 1-19.595 41.793 2331.907 2331.907 0 0 0-10.829 23.159 2170.59 2170.59 0 0 1-16.771 35.523c-.832 1.725-1.66 3.451-2.485 5.179-10.22 21.37-22.668 38.83-45.765 47.12-12.765 4.296-24.94 4.978-38.276 4.893l-5.199-.008c-4.526-.008-9.051-.027-13.577-.05-4.633-.02-9.265-.03-13.898-.04-9.063-.02-18.126-.055-27.189-.097.703-4.69 1.878-8.326 3.93-12.617l.914-1.93c1.003-2.112 2.017-4.22 3.031-6.328l2.155-4.528c1.528-3.212 3.06-6.421 4.595-9.63 2.354-4.919 4.694-9.844 7.031-14.772 3.178-6.699 6.36-13.397 9.543-20.093 4.67-9.823 9.332-19.648 13.989-29.477l1.128-2.383a13114.16 13114.16 0 0 0 16.664-35.328 12078.477 12078.477 0 0 1 17.166-36.33 11046.334 11046.334 0 0 0 16.831-35.665 5194.97 5194.97 0 0 1 11.53-24.4c6.951-14.603 13.887-29.211 20.575-43.937.604-1.327 1.208-2.655 1.815-3.981.831-1.822 1.655-3.647 2.478-5.472l1.398-3.092c3.736-9.25 4.726-17.663 1.125-27.076-3.306-7.216-9.875-11.407-17.093-14.195-5.873-1.88-11.632-3.501-17.805-3.766l-3-.156c-42.226-1.152-81.365 23.969-110.98 51.879-27.876 26.796-42.888 60.552-58.83 95.096-4.761 10.304-9.625 20.557-14.503 30.806A10614.247 10614.247 0 0 0 741.5 1805l-1.005 2.135a2221.966 2221.966 0 0 0-12.12 26.178c-5.736 12.6-11.756 25.062-17.826 37.505a1649.79 1649.79 0 0 0-4.006 8.295c-3.285 6.79-6.642 13.1-11.543 18.887l-2.125 2.938c-12.22 14.231-31.948 21.59-50.214 23.278-5.566.312-11.128.246-16.7.175-1.746-.008-3.491-.014-5.236-.018-4.528-.015-9.055-.054-13.582-.098-4.647-.042-9.293-.06-13.94-.08-9.068-.042-18.135-.11-27.203-.195.673-4.461 1.694-7.893 3.703-11.945l1.701-3.47.91-1.828c1.615-3.247 3.203-6.507 4.795-9.765l.992-2.025c3.231-6.61 6.323-13.282 9.399-19.967a1577.414 1577.414 0 0 1 13.5-28.5 1575.104 1575.104 0 0 0 13.188-27.813c5.277-11.432 10.651-22.817 16.062-34.187l1.227-2.579 1.23-2.586 2.461-5.17 1.23-2.587c4.072-8.56 8.12-17.13 12.164-25.703a20588.265 20588.265 0 0 1 16.359-34.592A12938.017 12938.017 0 0 0 683 1673a12240.254 12240.254 0 0 1 16.938-35.875c5.883-12.413 11.76-24.828 17.625-37.25l1.056-2.239 5.272-11.168a189161.175 189161.175 0 0 0 12.732-26.964l9.59-20.305a31092.109 31092.109 0 0 0 23.82-50.512c3.06-6.502 6.117-13.006 9.167-19.513 1.423-3.037 2.848-6.074 4.274-9.11.667-1.424 1.335-2.849 2-4.274 3.497-7.474 7.047-14.917 10.721-22.306l.958-1.933c12.976-25.912 31.722-50.959 54.847-68.551.92-.736 1.84-1.472 2.79-2.23 21.19-16.593 45.88-25.949 72.773-27.332l2.44-.127c6.686-.313 13.367-.418 20.06-.436ZM2746 1367c1.581 4.751-.489 7.895-2.602 12.156l-1.175 2.443c-1.272 2.639-2.56 5.27-3.848 7.901a4096.45 4096.45 0 0 0-2.647 5.486 4829.463 4829.463 0 0 1-3.987 8.26 1321.416 1321.416 0 0 0-10.553 22.379l-3.086 6.672-1.53 3.31c-2.824 6.096-5.667 12.182-8.51 18.268a263351.482 263351.482 0 0 0-5.296 11.343c-2.632 5.636-5.262 11.272-7.892 16.909l-4.374 9.373-1.75 3.75-32.375 69.375a580319.383 580319.383 0 0 0-13.949 29.897c-6.468 13.881-12.96 27.75-19.488 41.603a6553.805 6553.805 0 0 0-17.731 37.96c-4.834 10.43-9.701 20.842-14.565 31.257-2.028 4.34-4.052 8.683-6.076 13.025a10831.07 10831.07 0 0 1-19.653 41.933 5312.59 5312.59 0 0 0-14.98 32.083c-4.612 9.951-9.282 19.874-13.96 29.794-4.064 8.622-8.11 17.251-12.11 25.902-2.097 4.53-4.204 9.056-6.312 13.58a1868.86 1868.86 0 0 0-3.145 6.81c-1.56 3.392-3.138 6.774-4.718 10.156l-1.38 3.033c-8.507 18.04-22.943 30.642-41.433 37.717l-1.879.723c-11.612 4.174-23.186 4.174-35.351 4.097l-5.267-.008c-4.585-.008-9.17-.027-13.755-.05-4.692-.02-9.385-.03-14.078-.04-9.182-.02-18.363-.055-27.545-.097.628-4.055 1.43-7.418 3.145-11.152l1.302-2.854 1.365-2.931 1.33-2.92c1.917-4.166 3.859-8.254 6.182-12.21 1.841-2.66 1.841-2.66 1.676-4.933l-1.38.911c-40.018 26.266-82.672 40.496-130.62 42.089l-3.23.125c-23.147.47-46.017-3.796-66.77-14.125l-2.633-1.277c-6.059-3.135-11.183-7.323-16.367-11.723l-2.469-2.023c-17.62-15-28.69-35.797-34.531-57.977l-.535-1.988c-5.35-21.133-4.617-47.93.535-69.012l.602-2.49c11.976-47.991 38.77-90.9 70.97-127.858 1.003-1.161 1.999-2.33 2.987-3.503 2.559-3.033 5.047-5.878 8.128-8.399 3.396-2.88 6.513-5.941 9.626-9.125 5.236-5.315 10.813-10.031 16.687-14.625l3.055-2.43c18.424-14.538 38.694-26.64 59.945-36.57l2.513-1.183c33.089-15.424 68.84-24.316 105.425-24.13l2.276.006c45.631.185 86.049 10.778 119.786 42.307 2.66-3.26 4.382-6.652 6.16-10.457l.914-1.946c1.001-2.135 1.995-4.272 2.988-6.41l2.131-4.556c2.277-4.873 4.543-9.752 6.807-14.631l1.13-2.436c7.103-15.31 14.196-30.624 21.143-46.005 20.99-46.438 20.99-46.438 34.727-64.559l1.47-1.953c23.66-31.086 54.882-56.242 94.468-62.235 15.245-1.796 30.725-2.03 46.062-1.812Zm-451 300c-3.15 3.561-6.09 7.242-9 11l-2.492 3.047c-23.18 28.448-41.859 61.46-51.508 96.953l-.582 2.129c-4.263 16.367-4.493 35.685.582 51.871l1.031 3.309c2.819 8.084 6.89 14.828 11.969 21.691l1.426 1.988c10.016 12.853 27.55 21.982 43.574 24.012 15.648 1.186 30.927.468 46-4l2.192-.65c32.467-9.96 62.69-29.984 78.808-60.35 3.047-5.926 5.927-11.932 8.813-17.938A6174.54 6174.54 0 0 0 2435 1781l1.703-3.544a6192.485 6192.485 0 0 0 7.99-16.72c2.406-5.04 4.825-10.075 7.244-15.11l1.513-3.151a140910.688 140910.688 0 0 1 7.553-15.732 789915974.151 789915974.151 0 0 0 4.505-9.386 9349.67 9349.67 0 0 1 7.35-15.29c7.504-15.577 14.885-31.21 22.227-46.864 1.708-3.64 3.421-7.276 5.143-10.909l1.11-2.349c.706-1.492 1.414-2.984 2.123-4.475 3.633-7.686 5.234-14.857 2.702-23.235-5.122-11.207-15.06-16.844-26.164-21.234-69.219-23.782-139.91 26.401-185 74ZM3342.813 716.938A3866.816 3866.816 0 0 1 3358 717c-.56 4.18-1.511 7.565-3.31 11.374l-1.485 3.174-1.644 3.451-1.73 3.681a3140.835 3140.835 0 0 1-4.8 10.145c-1.416 2.982-2.826 5.966-4.237 8.95-3.024 6.395-6.052 12.787-9.084 19.178a11973.537 11973.537 0 0 0-18.749 39.747c-2.35 5-4.704 9.997-7.06 14.994-6.127 13.002-12.241 26.01-18.277 39.055-5.843 12.624-11.794 25.196-17.757 37.764a10227.446 10227.446 0 0 0-14.993 31.736l-.988 2.102-4.92 10.462c-2.986 6.353-5.975 12.705-8.965 19.056l-5.006 10.638-1 2.126-5.97 12.69c-7.52 15.987-15.05 31.97-22.597 47.944a29284.814 29284.814 0 0 0-21.445 45.514c-3.66 7.783-7.323 15.564-10.985 23.346l-3.003 6.38-1 2.126-5.97 12.69a25574.25 25574.25 0 0 1-17.249 36.621l-1.067 2.262c-1.776 3.759-3.553 7.517-5.332 11.274a2347.941 2347.941 0 0 0-9.668 20.628c-1.431 3.1-2.869 6.197-4.307 9.294a970.766 970.766 0 0 0-2.01 4.373c-3.788 8.293-7.833 15.941-13.393 23.224l-2.188 3.063c-12.74 14.642-32.944 22.158-51.812 23.937-3.624.193-7.247.278-10.875.352l-3.156.07c-2.206.047-4.411.092-6.616.136-3.287.066-6.574.144-9.86.223-14.538.316-28.975.012-43.493-.781-1.266-5.002-.1-7.8 2.184-12.27l1.013-2.063a794.265 794.265 0 0 1 3.24-6.48c.729-1.47 1.456-2.94 2.182-4.412 1.78-3.599 3.575-7.189 5.381-10.775-3.94.853-6.47 2.524-9.813 4.813-35.711 23.574-77.537 35.185-120.187 36.187l-3.918.121c-31.327.526-61.63-6.779-86.082-27.121l-2.434-1.988c-22.4-19.115-34.973-48.756-37.421-77.753-3.908-60.868 24.749-119.317 62.49-165.585a435.19 435.19 0 0 0 2.629-3.254c7.039-8.775 14.873-16.766 22.798-24.732l1.536-1.552c6.794-6.849 13.808-13.165 21.402-19.136l2.149-1.722c10.773-8.605 22.025-16.2 33.851-23.278l2.057-1.233c57.052-33.87 125.54-48.274 190.736-32.415 22.685 5.934 41.724 16.118 59.207 31.648 1.057.891 2.117 1.778 3.181 2.661L3141 932c14.708-30.977 29.27-62.016 43.61-93.166 1.775-3.856 3.556-7.71 5.34-11.563a2538.43 2538.43 0 0 0 2.115-4.585c3.783-8.216 7.533-16.337 12.372-23.999l1.406-2.26c4.047-6.421 8.434-12.482 13.157-18.427l1.926-2.543c22.835-29.309 54.497-52.56 92.074-57.457 9.943-1.067 19.829-1.122 29.813-1.063ZM2979 957l-3.508 1.863c-22.39 12.318-41.556 29.026-59.555 47.012l-2.814 2.777c-6.147 6.134-11.765 12.516-17.123 19.348l-1.648 2.09c-7.722 9.913-14.792 20.195-21.352 30.91l-1.485 2.425c-10.719 17.7-19.95 36.579-25.515 56.575l-.585 2.055c-6.843 24.797-5.279 50.014 7.073 72.675 10.528 17.815 26.642 27.6 46.207 33.016 30.436 6.748 63.553-5.273 89.305-20.746a121.085 121.085 0 0 0 11-8l2.852-2.246c18.262-14.595 27.13-31.936 37.148-52.754l1.398-2.9c2.213-4.6 4.41-9.205 6.602-13.815 3.565-7.489 7.19-14.949 10.813-22.41l4.136-8.523 1.033-2.128a10889.611 10889.611 0 0 0 11.873-24.56 106158.25 106158.25 0 0 0 10.29-21.33l3.452-7.155a4991.997 4991.997 0 0 1 9.56-19.706C3113.76 994.415 3113.76 994.415 3119 965c-4.18-11.856-12.031-17.705-23-23-3.942-1.623-7.881-2.907-12-4l-2.406-.645c-34.677-8.033-72.122 3.22-102.594 19.645Z" fill="#0052A8"/><path d="m968.625 373.75 2.605-.002c14.761.018 29.187.814 43.77 3.252l2.98.488c31.171 5.302 62.524 16.493 88.02 35.512l1.733 1.259c35.244 25.705 56.922 63.279 64.689 105.862 8.559 57.424-10.13 113.145-35.422 163.879l-1.203 2.417C1119.433 719.023 1097.5 749.206 1074 777l-1.586 1.886c-6.766 8.039-13.754 15.837-20.927 23.514a590.256 590.256 0 0 0-4.382 4.776c-9.465 10.395-19.137 20.825-29.898 29.898-2.577 2.249-5.056 4.589-7.543 6.936-5.798 5.47-11.645 10.756-17.879 15.732-2.607 2.113-5.14 4.287-7.669 6.492-7.744 6.743-15.794 13.012-24.003 19.177-2.022 1.52-4.035 3.051-6.047 4.585-32.793 24.929-67.75 47.31-104.204 66.495a1270.114 1270.114 0 0 0-8.413 4.486c-70.063 37.38-146.716 63.542-377.689 68.268-6.16-1.925-12.046-4.22-17.76-7.245 3.536-1.185 6.257-.842 9.91-.258l3.502.543 3.65.59c2.366.375 4.732.748 7.098 1.117l3.176.511c8.318 1.128 16.575 1.658 24.965 1.7l2.867.022c21.445.123 42.574-.066 63.832-3.225l1.983-.294c45.143-6.769 89.17-19.46 131.017-37.706l2.55-1.09A571.926 571.926 0 0 0 774 946l3.078-1.872C790.057 936.212 802.755 928.014 815 919l2.044-1.503c16.836-12.42 33.19-25.357 48.675-39.434a407.516 407.516 0 0 1 6.593-5.813c2.29-1.983 4.465-4.004 6.563-6.188C881 864 881 864 883 864l.625-1.688c1.885-3.17 4.529-5 7.375-7.312l2-3h2l.684-1.684c1.705-3 3.883-4.995 6.379-7.379 4.624-4.498 8.748-9.22 12.769-14.273 2.074-2.548 4.242-4.948 6.48-7.351 5.49-6.041 10.282-12.564 15.097-19.144 1.586-2.162 3.187-4.312 4.79-6.462 41.408-55.929 74.368-129.053 64.555-200.176-4.208-26.8-14.008-53.658-31.754-74.531l-2.172-2.555c-2.226-2.533-4.51-4.996-6.828-7.445l-2.484-2.68c-27.1-28.302-65.77-43.074-103.516-50.32l-2.384-.464C826.036 451.787 794.92 452.89 764 454c-1.132-6.776-1.132-6.776.055-8.793l1.82-1.394 2.27-1.754c.942-.68 1.884-1.36 2.855-2.059l3.512-2.652c10.688-7.925 22.048-14.488 33.723-20.84 2.513-1.37 5.011-2.764 7.507-4.164 33.016-18.25 70.1-29.457 107.258-35.219l2.02-.314c14.582-2.235 28.878-3.05 43.605-3.061Z" fill="#FFF"/><path d="M1001 317v1c-8.072-.548-16.04-1.677-24.034-2.896-13.613-2.028-27.102-2.345-40.841-2.354l-2.95-.002c-16.91.018-33.413.872-50.175 3.252l-3.688.52C850.154 320.76 821.969 327.807 794 337l-3.23 1.037C749.62 351.28 709.81 370.405 673 393l-3.06 1.863c-12.237 7.463-24.255 15.146-35.833 23.6-2.252 1.643-4.513 3.271-6.775 4.9C616.542 431.178 606.17 439.398 596 448l-1.902 1.602c-7.618 6.424-15.083 12.992-22.371 19.79a1620.418 1620.418 0 0 1-3.79 3.518 2754.89 2754.89 0 0 0-6.75 6.277l-2.137 1.98a151.16 151.16 0 0 0-11.538 12.09c-1.701 1.96-3.504 3.769-5.387 5.555-3.872 3.82-7.261 7.923-10.66 12.165a214.656 214.656 0 0 1-5.211 6.171c-51.804 58.897-89.944 136.647-86.134 216.365 2.641 38.192 19.911 76.283 48.595 101.913 2.716 2.256 5.483 4.425 8.285 6.574l2.797 2.238c7.928 6.203 16.306 11.116 25.203 15.762l1.938 1.027c40.807 21.34 89.598 26.957 135.07 24.649l3.547-.178c2.42-.126 4.839-.261 7.258-.406l3.507-.166 3.165-.175L682 885c2 3 2 3 1.914 5.426C678.843 904.708 648.286 917.202 636 924l-2.407 1.345c-33.51 18.638-70.536 30.552-108.343 36.467l-2.043.32c-15.194 2.347-30.048 3.108-45.394 3.118l-2.824.002c-58.821-.067-115.855-17.658-158.07-59.963-6.412-6.593-11.874-13.612-16.919-21.289l-1.205-1.822c-27.46-42.118-31.004-93.312-20.947-141.574 5.32-24.046 13.627-47.362 24.152-69.604l1.464-3.106C321.685 629.576 345.64 594.36 373 562l1.586-1.886c5.963-7.086 12.065-14.015 18.407-20.765 2.192-2.34 4.264-4.681 6.226-7.22L401 530h2l.732-1.718c1.52-2.735 3.338-4.594 5.557-6.802l2.606-2.6 2.73-2.692 2.66-2.659c4.5-4.47 9.064-8.798 13.874-12.931 2.964-2.573 5.799-5.28 8.654-7.973a262.254 262.254 0 0 1 15.367-13.332c2.616-2.127 5.164-4.312 7.705-6.528 7.684-6.69 15.664-12.913 23.808-19.03 2.396-1.802 4.782-3.617 7.166-5.434C564.925 394.33 645.444 353.155 863 300l2.428-.223c43.756-3.84 95.537-2.343 135.572 17.223Z" fill="#FFF"/><path d="M3616.063 846.871c34.082-.726 70.357 8.681 95.507 32.57 11.814 12.475 17.959 27.087 17.7 44.286-1.601 19.439-10.256 34.223-23.27 48.273l-2.105 2.352c-12.41 13.2-28.208 22.867-43.895 31.648l-2.663 1.496c-31.022 17.235-64.513 28.239-98.337 38.504 16.379 31.93 35.96 62.957 59.512 90.11 3.616 4.2 7.058 8.536 10.488 12.89 5.468-1.488 8.766-5.27 12.625-9.188l2.14-2.163c11.605-11.966 20.162-25.54 27.633-40.399 7.44-14.723 15.06-26.249 31.227-32.125 6.94-1.902 14.248-1.364 21.375-1.125-4.46 44.047-34.233 85.972-64 117 8.175 9.686 16.997 18.203 27 26l1.725 1.367c18.648 14.727 38.833 26.834 61.709 33.567 3.943 1.179 7.741 2.552 11.566 4.066-.538 5.65-2.212 9.521-6.516 13.348-15.157 10.775-37.935 10.035-55.734 9.965l-2.797-.005c-36.115-.105-72.372-4.498-99.984-30.199-1.946-1.39-1.946-1.39-4.266-.554a318.324 318.324 0 0 0-9.953 5.57c-62.49 35.6-142.796 40.859-211.81 22.865-18.223-5-35.392-12.109-50.94-22.99l-2.543-1.758c-16.808-12.456-26.047-32.04-29.207-52.367-1.188-18.411 1.182-36.604 7.75-53.875l.75-1.978c6.506-16.75 16.093-30.872 28.25-44.022l2.27-2.484c6.292-6.584 13.42-12.118 20.73-17.516l1.693-1.253c23.938-17.443 63.84-39.775 94.307-38.747l-.763-1.598c-11.979-25.295-16.96-47.726-8.104-74.875 5.099-13.894 11.998-25.805 20.867-37.527l2.125-2.879c3.442-4.583 3.442-4.583 4.875-6.121h2l.676-1.684c8.46-14.8 29.678-25.71 44.324-33.316l3.107-1.642c8.217-4.245 16.459-7.606 25.268-10.483l1.946-.642c24.87-8.167 49.727-11.267 75.742-12.362ZM3541 910c-6.217 7.902-10.546 16.199-13 26l-.574 2.238c-3.696 23.975 3.132 50.211 15.574 70.762 6.902-1.334 13.086-3.414 19.563-6.125l2.91-1.209c29.296-12.324 53.532-29.51 67.129-59.158 4.517-11.228 7.425-22.361 3.492-34.246-3.803-8.466-10.007-14.055-18.63-17.417-26.228-8.994-58.035-1.66-76.464 19.155Zm-84 168.125-2.921 1.38L3451 1081l-3.147 1.52c-7.407 3.64-14.264 7.484-20.853 12.48l-2.582 1.918c-17.695 13.618-31.389 31.682-35.418 54.082-1.591 17.354 1.37 34.411 12.55 48.309 15.726 18.342 37.865 25.669 61.358 27.55 33.104 2.225 65.749-4.619 94.092-21.859-2.115-3.802-4.51-6.787-7.5-9.938-4.315-4.67-8.296-9.494-12.184-14.523a445.492 445.492 0 0 0-9.108-11.358c-6.627-8.028-12.715-16.33-18.625-24.898a896.062 896.062 0 0 0-5.06-7.205c-28.473-40.263-28.473-40.263-38.523-61.078-4 0-5.494.466-9 2.125ZM1902.926 1545.751l2.399.002 2.752-.013 3.029.017 3.184-.006c3.489-.003 6.978.007 10.468.019h7.265c5.086.002 10.172.01 15.258.024 6.51.017 13.02.021 19.53.02 5.007 0 10.013.006 15.02.013l7.198.006c3.363.002 6.726.011 10.089.022l2.992-.002c5.388.025 10.558.359 15.89 1.147-.361 7.215-3.621 12.94-6.813 19.313-1.198 2.432-2.39 4.868-3.582 7.304l-.92 1.872c-2.993 6.104-5.852 12.268-8.685 18.449l-1.48 3.222-2.993 6.52c-2.64 5.739-5.302 11.467-7.965 17.195a391366427.377 391366427.377 0 0 1-4.92 10.593c-2.716 5.843-5.429 11.688-8.142 17.532-3.18 6.848-6.359 13.696-9.54 20.543a31624.791 31624.791 0 0 0-14.51 31.281c-14.628 31.582-14.628 31.582-21.825 46.989l-.858 1.836-.852 1.824c-3.71 7.942-7.411 15.888-11.103 23.84l-1.578 3.4c-2.834 6.106-5.664 12.215-8.487 18.326-9.112 19.723-18.285 39.415-27.61 59.039l-1.052 2.215c-.683 1.437-1.367 2.874-2.052 4.31a996.748 996.748 0 0 0-5.168 11.014l-1.067 2.3a753.262 753.262 0 0 0-1.976 4.303c-8.358 18.013-22.258 31.064-40.594 38.634-13.2 4.687-26.17 5.718-40.048 5.537-1.723-.008-3.446-.014-5.17-.018-4.468-.015-8.936-.054-13.404-.098-4.586-.042-9.172-.06-13.758-.08-8.95-.042-17.899-.11-26.848-.195-1.144-3.43-.948-3.743.539-6.829l1.092-2.305 1.209-2.471c.4-.84.802-1.679 1.215-2.544 1.285-2.684 2.583-5.361 3.882-8.038.873-1.817 1.745-3.634 2.616-5.452 2.139-4.458 4.29-8.911 6.447-13.361a73.863 73.863 0 0 0-7.984 4.54c-10.067 6.526-20.136 12.409-31.016 17.46l-2.103.999c-32.435 15.365-67.662 23.22-103.522 23.251l-2.144.002c-25.696-.039-49.396-5.944-68.352-24.307-19.163-20.395-24.837-48.136-24.01-75.323 1.1-21.91 7.57-42.322 16.567-62.167a2022.84 2022.84 0 0 0 4.483-9.986c9.516-21.316 19.218-42.545 28.988-63.746a6451.562 6451.562 0 0 0 9.988-21.824c13.28-29.112 26.775-58.126 40.335-87.108 1.62-3.464 3.23-6.932 4.838-10.4 1.388-2.99 2.779-5.978 4.17-8.965.67-1.44 1.337-2.88 2.003-4.32.921-1.99 1.847-3.978 2.775-5.965l1.602-3.453C1620 1549 1620 1549 1622 1547c2.089-.246 2.089-.246 4.72-.24l3.017-.009 3.322.022h3.489c3.82 0 7.64.016 11.46.032l7.928.008c6.254.006 12.509.023 18.763.043 7.12.022 14.24.033 21.359.043 14.647.021 29.295.056 43.942.101-.712 4.773-1.945 8.46-4.035 12.828l-.94 1.98c-1.022 2.15-2.055 4.296-3.088 6.442-.725 1.522-1.45 3.044-2.173 4.566a5601.782 5601.782 0 0 1-4.522 9.483c-3.114 6.522-6.186 13.064-9.258 19.606-1.655 3.525-3.314 7.048-4.972 10.572l-.999 2.121c-2.028 4.311-4.059 8.621-6.09 12.93a8135.6 8135.6 0 0 0-22.732 48.593 5734.679 5734.679 0 0 1-8.163 17.521c-13.7 29.3-27.285 58.645-40.328 88.246a2008.353 2008.353 0 0 1-5.966 13.39c-15.014 33.255-15.014 33.255-11.734 68.722a55.572 55.572 0 0 0 3.914 6.379C1620 1872 1620 1872 1621 1875c1.829 1.092 1.829 1.092 4 2a830.838 830.838 0 0 1 6.39 3.781c21.231 9.916 53.235 1.645 74.13-5.836 29.51-11.248 53.56-29.852 68.042-58.257l1.536-2.981c6.541-12.785 12.748-25.733 18.902-38.707l.919-1.936a3163.343 3163.343 0 0 0 23.25-50.224 4627.246 4627.246 0 0 1 14.706-32.09l2.288-4.95 1.145-2.478 1.145-2.478 1.146-2.479c4.02-8.7 8.025-17.406 12.026-26.115l1.062-2.312c4.769-10.38 9.522-20.768 14.267-31.159 5.81-12.723 11.635-25.439 17.486-38.143.778-1.689 1.554-3.378 2.33-5.067 13.486-29.344 13.486-29.344 17.156-29.818ZM2650 889l3.122.634c23.42 4.914 46.69 12.13 64.878 28.366l2.508 2.078c17.83 15.158 28.538 37.694 30.492 60.922 1.71 31.758-8.483 57.535-21.996 85.69-3.548 7.409-6.937 14.886-10.316 22.372l-3.75 8.278-.96 2.117c-5.769 12.704-11.646 25.359-17.503 38.022a8100.547 8100.547 0 0 0-8.162 17.716c-7.645 16.63-15.341 33.223-23.352 49.68a706.6 706.6 0 0 0-5.922 12.5c-9.15 19.722-9.15 19.722-16.039 27.625l-1.555 1.883c-13.102 14.536-33.549 21.262-52.445 23.117-2.535.082-5.073.118-7.61.114h-2.16c-2.327 0-4.653-.008-6.98-.016l-4.876-.005c-4.254-.003-8.509-.013-12.763-.024-4.351-.01-8.702-.015-13.052-.02-8.52-.01-17.04-.028-25.559-.049-.918-3.52-1.185-5.505.447-8.78l1.032-2.123 1.142-2.242 1.148-2.332c1.21-2.452 2.439-4.894 3.669-7.335a3626.57 3626.57 0 0 0 2.47-4.99c2.016-4.074 4.05-8.138 6.092-12.198-3.084 1.028-5.363 2.524-8.036 4.339-45.732 30.899-108.23 49.75-163.522 40.07-25.98-5.13-48.733-18.41-63.96-40.283-14.399-21.56-17.827-48.321-12.857-73.501 6.947-31.982 24.22-58.081 46.375-81.625l1.867-1.996c4.97-5.148 10.48-9.631 16.133-14.004l1.886-1.462c43.28-33.185 96.397-50.367 150.114-56.538l3.348-.402c40.998-4.028 85.25 1.644 119.329 26.024l1.891 1.353L2626 1033c2.463-4.705 4.916-9.415 7.36-14.13.83-1.596 1.662-3.191 2.497-4.785 13.678-24.817 13.678-24.817 13.229-52.257-1.711-4.457-4.183-8.069-7.086-11.828l-1.75-2.625c-14.343-15.14-38.119-20.718-58.25-21.375l-2.66-.121c-37.537-.898-73.503 11.708-107.992 25.074l-3.897 1.503c-2.486.96-4.965 1.933-7.443 2.914-10.82 4.195-22.632 8.044-34.078 3.876-4.408-2.28-7.19-5.217-9.93-9.246a93.142 93.142 0 0 1-1-6c13.041-7.912 26.386-15.122 40-22l2.46-1.247c30.464-15.299 63.074-25.563 96.54-31.753l2.794-.543c29.268-5.493 64.029-5.434 93.206.543Zm-228.93 215.738c-20.253 22.122-34.667 53.133-34.34 83.348.84 12.195 5.914 21.748 14.625 30.2 15.718 13.368 34.61 14.828 54.398 13.247 37.032-3.449 72.36-19.352 96.962-47.69 6.971-8.673 11.808-18.566 16.27-28.697 1.252-2.842 2.524-5.675 3.795-8.508.68-1.516 1.359-3.033 2.036-4.55 3.67-8.206 7.439-16.366 11.214-24.524 1.152-2.489 2.302-4.978 3.452-7.467 3.12-6.753 6.243-13.504 9.368-20.253.86-1.856 1.718-3.713 2.577-5.569 1.014-2.192 2.03-4.384 3.046-6.576l1.34-2.894 1.144-2.47c2.38-5.33 3.718-8.471 2.043-14.335-2.04-2.197-3.519-3.453-6-5l-2.023-1.277c-10.253-5.757-23.288-8.311-34.977-8.723l-3.27-.121c-54.653-.99-104.458 22.708-141.66 61.86ZM3010 1576l2.871 2.367c21.317 18.444 35.056 44.833 39.129 72.633 1.445 25.188-2.027 48.108-10 72l-.677 2.094c-2.601 7.973-2.601 7.973-4.323 10.906-3.574 1.802-6.49 2.248-10.464 2.238l-3.307.006-3.617-.024h-3.855c-3.529-.002-7.057-.016-10.586-.032-3.807-.015-7.613-.018-11.42-.022-6.594-.01-13.19-.026-19.784-.046-9.538-.03-19.076-.045-28.615-.057a54925.119 54925.119 0 0 1-49.245-.083 94402.262 94402.262 0 0 1-42.282-.096l-2.806-.007c-15.423-.037-30.847-.062-46.27-.078-9.519-.01-19.037-.03-28.555-.064-6.516-.022-13.033-.034-19.55-.036-3.763-.003-7.527-.01-11.29-.03-4.073-.021-8.147-.02-12.22-.016l-3.63-.03-3.292.013-2.851-.006c-2.842.445-3.645 1.103-5.361 3.37a115.416 115.416 0 0 0-3.438 7.625l-.926 2.27c-4.415 11.21-7.217 23.037-7.636 35.105l-.121 2.809c-.523 23.14 6.054 44.444 22.14 61.308 23.302 22.221 58.237 24.716 88.695 24.02 48.192-1.999 93.694-27.37 129.849-57.762 9.048-7.245 17.966-8.604 29.437-7.375 3.607.887 6.916 1.897 10 4 1.262 2.14 1.262 2.14 2 4-13.35 14.869-27.11 29.821-43 42a751.13 751.13 0 0 0-3.395 2.77c-26.906 22.017-56.903 40.248-89.605 52.23l-2.203.823c-19.493 7.21-40.196 11.605-60.797 14.177l-2.413.312c-50.119 6.233-105.812.991-147.008-30.714-11.061-8.818-19.949-18.696-27.579-30.598l-1.191-1.842c-19.585-30.856-22.266-68.326-14.516-103.345 4.7-19.62 11.76-38.751 20.707-56.813l1.302-2.686c16.936-34.749 41.077-66.471 71.698-90.314 1.316-1.066 2.631-2.134 3.945-3.203 25.981-20.937 55.795-36.35 87.055-47.797l2.66-.986c29.553-10.836 60.997-16.697 92.34-19.014l2.562-.191c46.925-3.29 94.304 3.355 131.438 34.191Zm-224 57c-3.103 3.588-6.05 7.286-9 11-.911 1.11-1.824 2.22-2.738 3.328-11.203 13.653-21.187 28.119-30.512 43.11l-1.664 2.672c-2.432 3.968-4.34 7.527-6.086 11.89h198c3.31-7.326 3.31-7.326 5.816-14.75l.873-3.068.874-3.182.92-3.322c6.995-25.805 12.195-56.789-.233-81.678-7.165-11.846-17.974-18.18-31.125-21.938-49.534-9.676-93.032 21.716-125.125 55.938ZM2262 920l1.549 1.316c21.839 18.702 37.855 44.817 41.451 73.684 2.223 29.68-3.056 58.733-15 86-1.685 1.685-3.778 1.132-6.09 1.139l-3.362.016-3.74.003-3.938.015c-3.624.014-7.247.021-10.87.028-3.902.008-7.803.021-11.704.034-6.765.022-13.53.04-20.294.056-9.78.023-19.561.05-29.342.08-15.866.048-31.733.091-47.6.132a145407.182 145407.182 0 0 0-63.42.174c-39.546.114-79.093.22-118.64.323-.15.784-.3 1.568-.456 2.375-.49 2.364-1.134 4.342-2.067 6.559l-.902 2.195-.95 2.309c-4.491 11.25-7.04 22.418-7.625 34.562l-.16 2.68c-.668 20.965 5.358 41.697 18.785 58.007 15.39 16.37 38.559 23.886 60.375 26.313l2.8.336c24.041 2.46 48.154-.19 71.2-7.336l2.06-.62c28.77-8.787 54.545-24.815 77.94-43.38 10.79-8.514 20.063-15.254 34.418-13.746 5.356 1.023 9.813 3.145 14.582 5.746-.582 3.115-1.424 4.817-3.598 7.11l-1.655 1.763-1.81 1.877-1.878 1.975c-2.009 2.102-4.032 4.19-6.059 6.275l-2.052 2.118c-7.06 7.262-14.115 14.397-22.104 20.648a182.153 182.153 0 0 0-6.125 5.03c-58.817 50.006-135.574 75.297-212.644 69.74-39.883-3.453-81.2-17.663-107.903-48.849-19.48-24.104-29.635-51.5-29.547-82.562l.002-2.19c.043-12.65 1.197-24.647 4.373-36.935l.65-2.521c14.944-56.255 47.6-110.983 94.35-146.479l3.559-2.781c73.015-56.52 195.789-92.654 313.441-33.219Zm-194 31-3 2.379c-13.62 11.04-26.37 23.672-37 37.621a1833.26 1833.26 0 0 1-2.79 3.496c-6.95 8.787-13.316 17.933-19.523 27.254l-1.133 1.7a759.465 759.465 0 0 0-12.097 18.753l-2.012 3.224c-1.608 2.372-1.608 2.372-1.445 4.573 25.634.07 51.268.123 76.901.155 11.902.016 23.804.037 35.705.071 10.37.03 20.742.05 31.112.056 5.494.004 10.988.013 16.481.035 5.167.02 10.334.027 15.5.022 1.9.001 3.8.007 5.7.019 2.588.014 5.174.011 7.761.003l2.297.026c3.984-.017 3.984-.017 7.47-1.754 1.49-2.268 2.197-4.494 2.975-7.094l1.004-3.338c.34-1.18.68-2.36 1.032-3.576l1.068-3.658c7.701-26.985 13.78-58.588 2.307-85.342-2.86-5.121-7.065-9.623-11.313-13.625h-2v-2c-38.657-21.522-82.987-4.585-115 21ZM1373 1547.75l2.293-.002c41.944.059 83.778 10.562 114.707 40.252l2.371 2.215c5.352 5.135 9.65 10.534 13.629 16.785l1.777 2.738c4.96 8.021 8.433 16.287 11.223 25.262l.646 2.07c12.724 43.108-3.712 88.477-23.929 126.332-8.645 15.611-18.745 30.536-29.717 44.598l-1.91 2.46c-2 2.54-4.038 5.043-6.09 7.54l-2.43 2.996c-6.318 7.659-13.134 14.777-20.132 21.816l-2.613 2.64c-5.967 5.94-12.244 11.305-18.825 16.548a1026.48 1026.48 0 0 0-3.723 3.082c-9.323 7.663-19.085 14.462-29.277 20.918l-2.02 1.288c-58.418 36.856-133.325 53.072-201.222 37.888-5.357-1.285-10.659-2.754-15.946-4.301l-2.633-.769-2.41-.739-2.137-.653C1153 1918 1153 1918 1152 1916l-3.625-1.125c-28.938-9.201-50.87-33.695-64.563-59.75-17.733-36.624-13.635-75.332-.996-112.508 24.936-71.678 75.183-130.009 143.27-163.698 31.134-14.982 64.766-23.717 98.914-28.169l3.791-.495c14.718-1.818 29.394-2.493 44.209-2.505Zm-83 64.25-1.717 1.367c-12.184 9.747-23.545 20.72-33.197 32.992-2.183 2.764-4.473 5.413-6.774 8.079-39.848 47.867-82.818 123.436-78.312 187.562 1.714 15.861 8.467 30.858 20.688 41.313 15.511 11.556 34.513 14.77 53.415 12.426 17.563-2.857 33.751-12.342 47.897-22.739l1.76-1.288c9.727-7.204 18.535-15.319 27.24-23.712l2.629-2.504c4.71-4.58 8.903-9.44 13.004-14.57a269.15 269.15 0 0 1 6.253-7.413c38.589-44.586 66.748-102.49 77.114-160.513l.684-3.77c3.295-20.976 2.86-42.014-9.02-60.285-7.634-9.929-19.571-13.974-31.367-16.53-34.24-4.301-64.099 8.473-90.297 29.585ZM478.902 1547.797l3.357-.021c3.56-.018 7.119-.024 10.678-.026l3.681-.002c17.66.016 34.929.336 52.382 3.252l3.222.52c36.477 6.036 72.095 17.319 104.368 35.558l2.492 1.403C661 1590 661 1590 661.848 1592.035c.356 4.59-4.048 8.659-6.848 11.965-6.181 5.9-12.823 9.086-21.375 9.375-7.866-.279-14.3-2.734-21.373-5.992-8.573-3.947-17.238-7.258-26.19-10.258l-3.407-1.155c-6.07-1.996-11.995-3.517-18.3-4.543-2.897-.525-5.572-1.479-8.355-2.427-2.88-.62-5.779-1.095-8.688-1.563l-2.24-.38c-22.705-3.73-49.632-4.84-72.072.943l-2.287.586c-15.962 4.292-30.782 11.666-39.455 26.367-5.153 9.812-8.293 19.554-5.195 30.547 7.92 21.244 34.994 31.675 53.937 40.5 6.313 2.86 12.667 5.627 19.018 8.4 9.713 4.243 19.364 8.572 28.92 13.162l2.934 1.407c11.242 5.45 21.344 11.256 31.128 19.031l2.184 1.676c14.773 11.98 25.496 31.48 27.816 50.324 2.336 27.644-6.817 52.334-24.473 73.594-2.45 2.857-4.973 5.641-7.527 8.406l-2.387 2.637c-12.219 12.882-27.305 22.578-42.613 31.363l-1.928 1.12c-10.563 6.09-21.65 10.659-33.072 14.88l-2.523.934c-34.029 12.396-69.547 17.293-105.602 17.316l-3.25.003c-16.104-.01-31.707-.646-47.625-3.253-1.95-.283-3.9-.564-5.852-.844-13.825-2.084-26.896-5.757-40.148-10.156l-5.047-1.621c-20.969-6.894-40.98-16.552-59.64-28.316l-2.393-1.475c-5.427-3.414-10.218-7.232-14.92-11.588 1.202-5.486 4.496-7.819 9-11 10.076-5.892 19.153-9.657 31-8 4.726 1.843 9.058 4.254 13.504 6.682 32.907 17.383 70.972 31.433 108.64 31.486l2.576.01c1.792.005 3.585.007 5.377.007 2.67.002 5.34.02 8.01.04 26.93.089 57.551-1.433 78.58-20.35 7.635-8.042 11.564-19.63 12.688-30.5-.844-7.6-3.627-13.262-8.07-19.43C453 1820 453 1820 452 1817a98.213 98.213 0 0 0-4-2 103.37 103.37 0 0 1-3.688-3.438c-16.943-15.221-38.953-24.926-59.171-34.996a3027.03 3027.03 0 0 0-17.32-8.575c-29.769-14.675-29.769-14.675-41.446-24.678l-1.902-1.565C311.31 1730.78 301.748 1718.221 296 1702l-1.027-2.809c-6.683-21.712-.28-45.307 9.875-64.82 21.944-40.517 60.853-63.48 103.843-76.425 22.684-6.485 46.62-10.049 70.211-10.15ZM3591.524 1547.684c3.51.003 7.019-.02 10.529-.045 52.875-.149 107.023 12.659 153.447 38.361l1.995 1.095c4.378 2.524 4.378 2.524 5.505 5.905-1.318 2.878-3.195 5.405-5 8l-1.812 2.688c-6.26 6.616-13.928 9.246-22.875 10-7.262-.116-12.696-2.772-19.112-5.847-24.01-11.493-49.847-18.449-76.201-21.841l-3.918-.559c-7.612-.815-15.31-.685-22.957-.691l-2.509-.002c-25.02.032-50.345 2.874-69.393 20.897-8.803 9.328-13.675 20.406-13.489 33.199.922 10.95 7.595 18.298 15.664 25.21 13.162 10.085 28.589 17.123 43.684 23.765 2.619 1.152 5.232 2.314 7.845 3.48 3.46 1.543 6.921 3.082 10.384 4.618 69.864 31.007 69.864 31.007 84.627 66.067 8.077 22.926 6.463 45.008-3.938 67.016-9.325 18.893-23.393 35.17-40 48l-2.914 2.39c-9.078 7.31-18.821 13.117-29.086 18.61l-2.568 1.38c-31.611 16.688-67.034 25.73-102.432 29.62l-2.482.286c-10.495 1.048-21.044.957-31.58.964l-3.101.003c-16.162-.01-31.845-.778-47.837-3.253-1.905-.259-3.81-.517-5.715-.773-40.315-5.83-92.79-23.731-122.285-53.227.271-3.738 2.107-5.447 4.813-7.875 9.258-7.938 19.134-11.764 31.23-11.652 6.67.889 11.912 4.07 17.723 7.308 36.69 20.025 76.962 31.435 118.734 31.469l2.612.003c26.88-.021 60.355-.151 80.993-20.1 8.601-9.772 12.788-21.872 12.333-34.833-1.693-12.845-12.527-22.367-22.22-29.996-21.842-15.772-47.12-27.457-71.218-39.324-18.44-9.122-18.44-9.122-25-13l-2.527-1.473c-7.836-4.755-14.668-10.429-21.473-16.527l-2.285-2.027c-15.21-14.303-24.004-34.176-24.711-54.93-.379-29.02 16.102-56.666 35.602-76.935 28.754-29.223 68.374-44.256 108.082-51.358l2.546-.458c17.381-2.903 34.692-3.64 52.29-3.608ZM2278 1366c1.095 2.735 1.052 3.856.035 6.672l-1.543 3.078-1.72 3.487-.935 1.853c-1.314 2.608-2.602 5.23-3.891 7.85-.669 1.358-1.338 2.716-2.01 4.073-3.191 6.466-6.234 12.998-9.249 19.55a3850.767 3850.767 0 0 1-15 32.062 784619.347 784619.347 0 0 0-5.443 11.512 14983.493 14983.493 0 0 0-12.436 26.372 8606.06 8606.06 0 0 0-14.595 31.19c-5.25 11.27-10.558 22.51-15.874 33.749a3740.079 3740.079 0 0 0-13.776 29.427c-5.505 11.903-11.114 23.754-16.738 35.6a3386.68 3386.68 0 0 0-14.387 30.65 4107.421 4107.421 0 0 1-14.75 31.5l-1.086 2.295c-1.45 3.07-2.902 6.139-4.353 9.208-3.84 8.12-7.672 16.245-11.499 24.372l-1.01 2.146a4722.244 4722.244 0 0 0-13.115 28.104c-5.526 11.943-11.156 23.836-16.8 35.724a3385.033 3385.033 0 0 0-14.387 30.651 4073.77 4073.77 0 0 1-16.979 36.191 1842.48 1842.48 0 0 0-10.63 22.774l-3 6.517a703.628 703.628 0 0 0-1.863 4.098c-3.527 7.827-7.254 14.819-12.966 21.295l-2.414 2.785c-14.906 15.354-34.906 22.984-56.144 23.531-3.877.042-7.752.016-11.63-.023a2580.684 2580.684 0 0 1-18.142-.087c-4.478-.031-8.957-.044-13.436-.06-8.745-.031-17.49-.082-26.234-.146-1.261-3.784-.566-4.55 1.113-8.082l1.505-3.204 1.695-3.526c.587-1.24 1.173-2.482 1.758-3.723 1.28-2.707 2.565-5.412 3.855-8.115 2.14-4.483 4.264-8.973 6.387-13.463 2.655-5.615 5.313-11.229 7.976-16.84a9233.53 9233.53 0 0 0 13.836-29.297l.988-2.102 4.92-10.462c2.986-6.354 5.976-12.705 8.965-19.057L1958 1795.5l2-4.25 1-2.125 83-176.375 1-2.125a849857.866 849857.866 0 0 1 16.051-34.103 10838.432 10838.432 0 0 0 19.887-42.397 7415.01 7415.01 0 0 1 21.128-44.914c2.044-4.315 4.065-8.64 6.07-12.973 8.143-17.507 17.672-33.3 29.54-48.531a345.155 345.155 0 0 0 3.566-4.703l1.883-2.504 1.57-2.094L2146 1417h2l.723-1.707c11.921-21.4 44.25-37.886 67.148-44.711 20.244-5.53 41.34-4.73 62.129-4.582ZM3438 1553c-.508 4.691-2.417 7.275-5.313 10.938l-1.342 1.703c-4.77 5.998-9.773 11.797-14.8 17.58-2.588 2.98-5.161 5.972-7.733 8.966l-1.522 1.774c-3.718 4.341-7.34 8.753-10.942 13.191-2.757 3.345-5.58 6.629-8.41 9.91-5.473 6.353-10.86 12.766-15.84 19.516l-1.848 2.485-1.61 2.222c-1.64 1.715-1.64 1.715-3.538 2.711-3.294.006-4.603-1.802-6.977-3.996-8.738-7.49-18.88-12.391-30.125-15l-2.39-.617c-25.53-5.717-54.4 1.511-76.493 14.902-22.283 14.14-38.614 32.537-49.117 56.715-.636 1.435-1.273 2.87-1.912 4.303a2827.275 2827.275 0 0 0-3.003 6.76c-3.425 7.739-6.963 15.424-10.51 23.108a8234.446 8234.446 0 0 0-5.384 11.696l-1.067 2.323a5748.874 5748.874 0 0 0-10.686 23.435 12867.623 12867.623 0 0 1-15.376 33.75l-1.005 2.199-5.04 11.019c-2.342 5.117-4.682 10.236-7.022 15.354-1.656 3.624-3.313 7.248-4.973 10.87a3243.936 3243.936 0 0 0-9.278 20.412 5349.997 5349.997 0 0 1-4.328 9.589c-.684 1.515-1.364 3.031-2.041 4.549-3.556 7.966-7.159 15.584-12.375 22.633l-2.125 3c-13.401 15.31-35.145 22.618-54.875 24-5.616.134-11.23.117-16.848.098l-4.871-.005c-4.246-.003-8.493-.013-12.739-.024-4.344-.01-8.688-.015-13.032-.02-8.504-.01-17.007-.028-25.51-.049-1.37-4.111.279-6.331 2.094-10.008l1.023-2.135a944.04 944.04 0 0 1 2.214-4.578c1.994-4.1 3.956-8.214 5.923-12.326l1.22-2.544c3.77-7.877 7.381-15.82 10.963-23.784 6.169-13.68 12.557-27.25 19.001-40.802l2.269-4.772 1.116-2.348c4.959-10.44 9.81-20.93 14.659-31.421 2.54-5.493 5.093-10.98 7.643-16.47 3.802-8.186 7.6-16.375 11.39-24.566l4.86-10.496 1.234-2.665a6490.536 6490.536 0 0 1 17.06-36.537c4.95-10.528 9.775-21.11 14.564-31.712 5.93-13.114 12.065-26.128 18.266-39.117 3.4-7.13 6.78-14.264 9.993-21.48 10.32-23.13 22.317-39.595 46.634-49.124 27.918-10.49 69.967-16.75 98.874-7.115-.513 5.302-1.871 9.468-4.281 14.234l-1 2.037a1173.929 1173.929 0 0 1-3.219 6.479c-.732 1.484-1.463 2.968-2.193 4.453a4632.92 4632.92 0 0 1-4.327 8.771c-2.55 5.17-5.026 10.373-7.48 15.589l-1.111 2.356c-.798 1.693-1.594 3.387-2.389 5.081a288.7 288.7 0 0 0 12.375-11.063c17.087-15.818 36.582-28.099 57.625-37.937 1.09-.52 2.179-1.042 3.3-1.578 33.44-15.218 90.43-28.602 123.7-6.422ZM3775.58 1912.19c13.137 10.663 21.584 23.95 24.139 40.876 1.62 16.902-.617 34.84-11.094 48.747A178.034 178.034 0 0 1 3785 2006l-1.652 1.898c-9.023 9.724-22.648 16.224-35.865 17.309a183.38 183.38 0 0 1-7.858.106l-2.8-.011c-6.682-.107-12.543-.942-18.825-3.302-1.728-.565-3.457-1.128-5.188-1.687-1.271-.435-2.543-.871-3.812-1.313v-2l-2.191-.742c-11.348-5.082-19.11-17.205-23.809-28.258-6.272-17.41-5.58-36.624 1.781-53.633 7.89-15.325 20.607-25.405 36.781-30.867 17.811-4.518 39.057-2.57 54.019 8.69Zm-75.014 20.642c-9.034 12.504-9.701 26.283-8.566 41.168 1.509 9.033 5.196 15.993 11 23l1.516 1.926c7.928 9.03 20.432 13.34 32.086 14.285 13.715.514 25.136-3.589 35.523-12.336 10.208-9.573 15.02-20.762 15.875-34.598 0-13.824-2.908-25.757-12-36.277l-1.555-1.84c-8.458-9.247-19.863-13.285-32.14-14.406-16.72-.446-31.076 6.288-41.739 19.078Z" fill="#0052A8"/><path d="M3712 1928c40.286 0 40.286 0 48.438 5.188 5.214 5.723 6.096 11.581 5.843 19.199-.578 5.374-2.196 8.528-6.093 12.426-3.086 2.117-5.646 3.095-9.188 4.187l1.361 2.323a3805.84 3805.84 0 0 1 4.993 8.566c.719 1.234 1.44 2.468 2.162 3.7 1.04 1.776 2.073 3.554 3.105 5.333l1.889 3.237C3766 1995 3766 1995 3767 1999h-18l-3.035-6.09c-.99-1.942-1.99-3.88-2.99-5.818a330.25 330.25 0 0 1-2.038-4.054 321.527 321.527 0 0 0-2.972-5.815l-1.793-3.54c-2.016-3.05-2.016-3.05-5.92-3.572L3727 1970l.219 3.297c.549 8.585.89 17.094.781 25.703h-16v-71Zm15 13v16l7.688.125 2.393.055c4.089.032 7.308-.2 10.919-2.18 1.775-2.905 2.006-4.72 1.938-8.125-.685-2.967-.685-2.967-2.946-4.543-4.036-1.797-7.446-1.662-11.805-1.52l-2.388.042c-1.933.035-3.866.088-5.799.146Z" fill="#0052A8"/></svg>