<?xml version="1.0" encoding="utf-8"?>
<!-- Generator: Adobe Illustrator 16.0.0, SVG Export Plug-In . SVG Version: 6.00 Build 0)  -->
<!DOCTYPE svg PUBLIC "-//W3C//DTD SVG 1.1//EN" "http://www.w3.org/Graphics/SVG/1.1/DTD/svg11.dtd">
<svg version="1.1" id="Layer_1" xmlns="http://www.w3.org/2000/svg" xmlns:xlink="http://www.w3.org/1999/xlink" x="0px" y="0px"
	 width="966.251px" height="1000px" viewBox="0 0 966.251 1000" enable-background="new 0 0 966.251 1000" xml:space="preserve">
<g>
	<rect x="309.952" y="658.19" fill="#FFFFFF" width="179.859" height="280.77"/>
	<path fill="#FFFFFF" d="M578.251,493.547c-39.923,12.889-76.726,6.587-102.729-18.11c-28.479-27.055-38.509-71.874-24.398-108.997
		c13.708-36.05,46.676-57.563,90.455-59.012c11.827-0.333,22.555,1.882,31.472,4.863v-39.833v-14.837h14.826h55.118h14.834v14.837
		v210.479v14.838h-14.834h-52.416h-11.082C579.082,496.368,578.659,494.961,578.251,493.547 M529.301,403.962
		c0.26,10.983,3.222,29.459,20.173,29.887c5.216,0.175,9.154-1.143,12.17-4.027c4.845-4.625,7.678-13.477,7.789-24.287
		c0.2-12.301-2.425-21.529-7.593-26.772c-3.267-3.329-7.555-5.013-12.744-5.013c-4.431-0.044-7.801,1.297-10.741,4.204
		c-6.257,6.193-9.047,17.702-9.047,26.364 M836.744,435.793c-4.212,21.977-29.367,63.918-94.42,65.37
		c-29.836,0.527-58.317-10.446-78.195-30.084c-17.659-17.452-26.927-40.033-26.795-65.316c0.25-27.897,10.231-52.079,28.873-69.968
		c22.863-21.949,52.556-29.078,72.721-28.435c35.596,0.82,62.746,12.091,80.553,33.492c28.129,33.811,21.063,79.892,20.746,81.837
		l-2.011,12.467h-1.356L836.744,435.793z M742.179,375.528c-14.964,0-17.667,9.743-18.69,13.415
		c1.244-4.471,0.324-9.268-2.489-12.955c-2.807-3.689-7.183-5.855-11.812-5.849l63.691-0.061c-4.396,0-8.574,1.961-11.387,5.339
		c-2.814,3.384-3.983,7.843-3.185,12.168C757.697,384.29,756.092,375.528,742.179,375.528 M905.112,482.818l0.075-86.804
		c0.112-9.044,3.313-11.536,4.371-12.361c5.557-4.325,17.396-3.59,23.556-2.11l18.303,4.401V367.12v-42.059v-12.373l-12.178-2.215
		c-16.454-2.997-29.598-0.299-39.385,3.937c-0.198-0.847-0.393-1.701-0.586-2.553l-11.826,0.016l-50.732,0.061l-14.814,0.017v14.81
		v156.042v14.837h14.832h53.552h14.82L905.112,482.818z M366.252,482.936V379.754c1.318-4.043,6.027-4.22,7.013-4.215
		c3.555,0.026,5.761,1.629,6.558,4.757v102.569v14.832h14.832h56.558h14.834v-14.832V379.92
		c0.848-35.823-16.656-53.436-31.488-61.838c-23.277-13.187-54.165-11.531-76.042-4.458c-0.172-0.632-0.349-1.251-0.516-1.878
		l-11.31-0.011h-51.696h-14.833v14.837v156.362v14.838h14.833h56.421h14.837V482.936z M226.3,497.773h56.56h14.826v-14.838V326.706
		v-14.833h-14.826H226.3h-14.826v14.833v156.229v14.838H226.3z M226.3,330.966h56.493h14.832v-14.833v-45.261v-14.837h-14.832H226.3
		h-14.826v14.837v45.261v14.833H226.3z M167.764,356.077c21.04,39.937,42.087,79.876,63.128,119.813l11.459,21.745h-24.586h-64.424
		h-8.84l-4.208-7.771c-11.111-20.521-22.221-41.047-33.331-61.565c-1.141,1.307-2.283,2.608-3.424,3.915
		c-0.038,16.893-0.077,33.791-0.121,50.684l-0.039,14.811l-14.805-0.012l-58.919-0.062l-14.82-0.018v-14.814V228.686v-14.826h14.832
		h59.052h14.838v14.826v74.864c12.423-14.112,24.847-28.23,37.273-42.348l4.426-5.035h6.713h67.581h31.73l-20.354,24.347
		C209.873,305.699,188.814,330.887,167.764,356.077 M602.177,240.705c-88.749,23.998-177.487,47.991-266.236,71.989l-14.35,3.878
		l-3.851-14.356l-34.211-127.701c-9.564-35.691,10.014-72.084,43.639-81.129l266.429-71.379l14.323-3.839l3.844,14.322
		l34.063,127.121C655.367,195.328,635.783,231.693,602.177,240.705 M918.841,943.286c-8.823,15.803-22.519,32.059-57.151,32.744
		c-17.441,0.359-30.868-2.947-45.096-6.447c-9.056-2.236-18.426-4.535-29.475-5.965c-30.522-3.959-65.139-3.621-86.163,0.848
		c-10.75,2.287-22.42,6.48-33.703,10.539c-14.558,5.238-27.143,9.76-37.466,10.135c-14.505,0.516-31.62-6.176-36.295-19.949
		c-1.278-3.766-4.261-16.898,11.072-27.836c13.739-9.83,104.532-62.592,167.15-74.736c59.605-11.613,102.271-15.107,130.727,3.352
		c28.463,18.48,27.818,56.764,16.409,77.289l-0.004,0.012L918.841,943.286z M910.307,772.301
		c8.483,9.154,12.875,23.639,11.199,36.902c-1.269,10.02-5.871,18.045-12.954,22.609c-15.034,9.725-37.874,10.717-54.385,9.836
		c-22.363-1.191-36.627,0.965-47.676,7.209c-3.399,1.924-6.906,3.979-10.406,6.021c-15.099,8.84-28.146,16.467-38.41,18.172
		c-15.03,2.492-21.876-4.191-24.618-8.396c-3.417-5.229-5.704-14.188,2.785-27.197c8.204-12.58,47.848-51.139,84.129-65.609
		c43.568-17.393,73.965-17.238,90.341,0.459L910.307,772.301z M423.676,917.227c-2.262-0.033-4.537-0.117-6.913-0.426
		c-25.487-3.357-32.908-13.648-37.135-30.297c-1.268-5.023-3.633-14.367,10.645-174.037l0.409-4.563
		c0.499-5.65,0.859-9.609,0.981-11.332l0.056-0.754l0.227-1.416l2.731-15.426l15.342,2.99c6.219,1.451,10.673,4.127,13.602,8.17
		c6.468,8.906,9.478,31.1,14.019,103.238c2.635,42.182,3.09,97.307,0.919,111.301l-1.988,12.75L423.676,917.227z M623.201,927.374
		c23.748,0,36.958-10.707,43.859-19.689l0.021-0.021c10.614-2.887,19.402-8.613,25.673-16.793
		c9.647-12.545,17.239-30.34,24.579-47.543c3.474-8.107,6.801-15.912,10.142-22.57c7.931-15.861,27.359-35.844,46.141-55.174
		l5.561-5.721c13.547-14.018,33.331-32.158,52.462-49.697c44.23-40.586,60.076-55.816,64.241-67.381
		c3.167-8.801,9.53-39.352-41.834-62.652c-17.38-7.908-61.56-23.732-96.176,0.121c-1.648,1.137-3.434,2.559-5.296,4.176
		c-8.495,2.166-15.967,5.529-22.747,10.219c-6.839,4.719-14.537,12.484-23.67,23.346c1.824-28.324,1.278-59.363-17.629-76.824
		c-19.677-18.107-64.368-29.281-86.976-21.773c-5.91,1.969-13.931,5.318-20.738,12.574c-2.524,0.375-4.767,0.902-6.817,1.584
		c-26.955,8.934-37.955,30.211-34.648,66.971c0.637,7.09,1.662,15.764,2.918,25.422c-19.532-11.393-44.597-18.068-74.924-19.916
		c-42.127-2.598-101.682-1.551-132.869,6.873c-10.059,2.742-28.313,7.709-42.969,18.824c-12.007,4.184-21.971,9.455-29.857,15.785
		c-2.061-13.824-3.699-24.479-4.652-30.102c-5.521-32.682-11.792-58.303-37.463-66.064c-16.874-5.115-36.239-2.824-61.749,0.971
		c-14.66,2.184-40.901,7.781-57.495,21.086c-23.632,7.758-38.07,19.367-42.935,34.531c-6.674,20.715-1.723,42.752,12.979,108.186
		l4.208,18.775c4.088,18.35,7.941,34.779,11.343,49.32l0.565,2.43c5.244,22.35,11.011,46.928,12.871,60.121
		c-7.146-1.229-16.355-0.881-25.25,6.459c-2.53,2.08-4.802,4.459-6.795,7.072c-6.266-0.205-13.864,1.268-21.302,7.336
		c-9.77,8.039-15.686,19.592-16.268,31.721c-0.525,11.232,3.688,21.912,11.875,30.068c8.246,8.275,33.447,33.57,89.114,33.57
		c10.54,0,21.789-0.916,33.431-2.709c33.409-5.129,59.435-16.029,77.411-32.406c1.23-0.592,2.449-1.209,3.646-1.838
		c7.599,10.301,17.59,19.078,29.825,26.207c36.426,21.246,66.605,29.715,115.317,32.363c3.955,0.209,8.063,0.32,12.295,0.32
		c39.933,0,108.609-10.65,138.254-39.789c17.289-8.102,29.065-17.789,35.114-28.877c1.207,0.514,2.448,1.023,3.727,1.539
		C595.647,924.151,610.275,927.374,623.201,927.374"/>
	<path fill="#FFFFFF" d="M628.275,1000c-18.996,0-41.756-9.199-48.83-30.043c-3.313-9.756-2.91-22.797,5.784-34.387
		c-1.279-0.414-2.564-0.85-3.858-1.305c-7.659,8.809-18.363,16.594-31.982,23.244c-36.23,33.365-111.476,42.252-146.771,42.252
		c-4.411,0-8.813-0.115-13.081-0.34c-51.374-2.791-83.296-11.783-122.005-34.361c-9.372-5.461-17.651-11.836-24.739-19.041
		c-19.406,14.396-45.049,24.111-76.418,28.926c-12.404,1.912-24.411,2.881-35.682,2.881c-61.818,0-90.269-28.549-99.618-37.93
		c-11.151-11.111-16.913-25.768-16.188-41.236c0.783-16.322,8.678-31.801,21.66-42.48c7.03-5.736,15.095-9.242,23.669-10.352
		c1.411-1.438,2.891-2.795,4.431-4.061c5.172-4.268,10.918-7.242,17.066-8.877c-2.61-12.615-6.311-28.381-9.708-42.855l-1.014-4.354
		c-3.283-14.031-7.005-29.936-10.931-47.563l-4.204-18.756c-15.362-68.377-20.537-91.412-12.622-115.979
		c6.202-19.336,23.01-33.883,49.965-43.246c18.332-13.598,43.864-19.734,62.398-22.494c27.445-4.082,48.405-6.506,68.237-0.494
		c36.508,11.037,43.026,49.619,47.786,77.789c0.354,2.092,0.804,4.875,1.346,8.334c3.642-1.719,7.479-3.316,11.498-4.783
		c16.507-11.828,35.614-17.039,46.061-19.887c33.08-8.934,92.993-10.139,137.729-7.379c20.963,1.277,39.802,4.791,56.306,10.484
		c-3.869-43.439,11.192-71.109,44.769-82.236c1.404-0.467,2.842-0.875,4.333-1.229c2.473-2.203,4.991-4.061,7.471-5.639h-12.734
		l-0.278-0.947c-16.996,3.744-33.427,4.266-49.01,1.541c-13.954-2.443-26.749-7.387-38.231-14.758v14.088h-99.793v0.076H196.64
		v-0.137h-60.975l-17.408-32.149c-0.002,0.872-0.005,1.744-0.007,2.616l-0.077,29.619L0,512.434V199.025h118.389v65.22
		l20.154-22.912h58.097v-0.133h89.398L269.2,178.353c-11.679-43.582,12.597-88.124,54.114-99.292L618.403,0l7.687,28.644
		l34.064,127.126c9.02,33.764-3.506,68.079-28.879,87.015h41.387v69.058c22.796-14.81,48.215-19.884,66.677-19.311
		c26.816,0.627,49.474,6.681,67.723,18.054v-13.451l97.769-0.119c11.676-3.113,24.097-3.498,37.066-1.137l24.354,4.43v104.459
		l-36.605-8.803c-3.038-0.73-7.035-0.882-9.599-0.61c-0.012,0.233-0.021,0.488-0.025,0.766l-0.102,116.353H807.062v-13.958
		c-16.129,9.887-37.258,16.87-64.406,17.475c-25.315,0.436-49.762-6.43-69.993-19.292v15.905h-3.48
		c11.46,4.646,21.799,10.662,29.391,17.646c14.64,13.521,20.524,32.445,22.377,52.5c0.151-0.105,0.302-0.211,0.453-0.314
		c7.346-5.082,15.27-8.848,24.124-11.455c1.372-1.105,2.672-2.08,3.927-2.945c40.862-28.158,91.053-10.363,110.735-1.406
		c25.63,11.625,42.15,26.764,49.086,44.986c6.075,15.965,2.959,29.525,0.562,36.188c-5.494,15.258-21.808,30.748-68.17,73.289
		c-18.967,17.391-38.576,35.367-51.824,49.076l-1.284,1.322c8.51-5.318,17.269-9.973,25.917-13.424
		c49.85-19.898,85.757-18.498,106.725,4.164c11.503,12.422,17.26,31.129,15.023,48.83c-1.829,14.441-8.802,26.234-19.635,33.217
		c-3.526,2.281-7.426,4.252-11.693,5.908c1.916,1.037,3.787,2.148,5.62,3.336c16.409,10.656,26.983,27.814,29.781,48.318
		c2.231,16.355-0.726,34.041-7.915,47.582l-0.037,0.102l-0.551,0.99c-9.443,16.912-26.955,39.494-69.81,40.344
		c-19.371,0.393-34.383-3.293-48.902-6.867c-8.637-2.131-17.523-4.326-27.864-5.664c-28.57-3.705-61.949-3.439-81.177,0.646
		c-9.802,2.086-20.968,6.104-31.766,9.988c-15.717,5.654-29.292,10.539-41.947,11C629.649,999.987,628.963,1000,628.275,1000z
		 M624.663,942.196c-5.588,3.332-9.567,5.861-11.468,7.223c-6.253,4.461-6.525,8.443-5.656,11.002
		c1.939,5.715,11.889,10.236,21.721,9.895c8.025-0.291,20.143-4.65,32.971-9.268c11.73-4.221,23.86-8.584,35.638-11.092
		c22.853-4.857,58.633-5.27,91.16-1.047c12.006,1.553,22.161,4.061,31.122,6.271c13.831,3.402,25.765,6.348,41.232,6.018
		c27.918-0.553,37.533-12.82,44.146-24.504l0.355-0.643c8.373-15.064,9.09-44.258-11.521-57.641
		c-21.354-13.852-55.973-12.473-101.252-4.658c-12.033,6.84-22.863,12.248-33.006,13.934c-8.073,1.338-14.726,0.773-20.152-0.791
		c-12.145,4.25-24.631,9.33-36.814,14.742c-7.104,8.588-16.501,15.043-27.471,18.881
		C666.294,930.963,650.396,941.799,624.663,942.196z M249.55,906.975l7.568,10.258c6.372,8.639,14.903,16.107,25.355,22.197
		c34.579,20.17,61.996,27.832,108.654,30.367c3.728,0.197,7.6,0.299,11.49,0.299c44.457,0,104.375-12.455,127.856-35.533
		l1.807-1.777l2.296-1.076c14.137-6.625,23.953-14.422,28.388-22.551l6.447-11.814l12.384,5.271
		c1.122,0.479,2.276,0.951,3.465,1.432c11.546,4.598,22.192,7.352,31.717,8.205c16.669-9.664,40.79-22.66,67.011-34.629
		c7.233-10.896,13.559-25.723,19.701-40.117l0.32-0.748c3.479-8.123,6.766-15.797,10.208-22.654
		c8.935-17.871,29.131-38.656,48.662-58.758l5.658-5.822c13.843-14.324,33.787-32.609,53.075-50.293
		c35.345-32.434,57.169-52.756,60.309-61.475c2.669-7.414,4.698-26.559-34.005-44.115c-15.103-6.873-53.252-20.729-81.631-1.174
		c-1.109,0.764-2.451,1.828-3.987,3.162l-2.655,2.305l-3.406,0.867c-6.759,1.725-12.639,4.355-17.973,8.045
		c-5.38,3.713-12.165,10.479-20.757,20.693l-29.058,34.549l2.903-45.051c1.595-24.768,1.312-51.857-12.891-64.971
		c-15.562-14.32-54.729-24.406-72.236-18.594c-4.385,1.459-10.017,3.766-14.595,8.645l-3.53,3.764l-5.104,0.76
		c-1.643,0.244-3.057,0.566-4.323,0.988c-14.729,4.881-27.887,14.504-24.553,51.566c0.564,6.285,1.498,14.408,2.854,24.836
		l3.893,29.936l-26.075-15.209c-17.478-10.193-40.475-16.223-68.354-17.922c-42.261-2.607-99.824-1.25-128.1,6.387
		c-9.555,2.605-25.527,6.961-37.872,16.324l-1.869,1.416l-2.215,0.771c-10.347,3.605-18.91,8.096-25.451,13.346l-20.148,16.172
		l-3.809-25.553c-2.16-14.492-3.71-24.521-4.606-29.809c-5.566-32.949-11.046-49.482-27.131-54.346
		c-13.92-4.219-31.69-2.063-55.273,1.443c-21.824,3.25-40.194,9.807-50.398,17.988l-2.098,1.68l-2.555,0.84
		c-18.858,6.191-30.108,14.592-33.437,24.969c-5.438,16.881-0.71,37.926,13.324,100.395l4.212,18.791
		c3.896,17.49,7.598,33.313,10.864,47.271l1.018,4.367c5.479,23.35,11.154,47.527,13.111,61.406l2.839,20.139l-20.043-3.449
		c-5.4-0.926-9.378,0.051-13.294,3.281c-1.631,1.34-3.118,2.893-4.441,4.627l-4.638,6.08l-7.644-0.25
		c-4.277-0.154-7.916,1.131-11.438,4.004c-6.482,5.334-10.446,12.979-10.827,20.938c-0.332,7.088,2.271,13.611,7.528,18.85
		c7.238,7.264,29.144,29.244,78.644,29.244c9.763,0,20.251-0.854,31.173-2.535c30.459-4.676,53.9-14.336,69.679-28.711l1.601-1.457
		l1.949-0.939c1.042-0.502,2.11-1.041,3.176-1.602L249.55,906.975z M874.893,773.723c-15.413,0-33.887,5.699-49.423,11.9
		c-33.243,13.262-70.808,50.131-77.203,59.938c-1.412,2.162-3.384,5.686-3.423,8.531c8.265-2.484,16.335-4.541,24.047-6.037
		c4.747-0.924,9.392-1.799,13.943-2.615c1.895-1.1,3.818-2.227,5.756-3.361l1.098-0.641c3.128-1.826,6.362-3.715,9.499-5.488
		c13.695-7.744,30.379-10.463,55.771-9.113c20.241,1.08,36.414-1.578,45.539-7.479c3.357-2.166,5.586-6.428,6.295-12.018
		c1.13-8.953-1.83-18.982-7.364-24.957l0.1-0.096l-0.102,0.094C893.643,776.133,884.913,773.723,874.893,773.723z M672.662,458.592
		c0.617,0.654,1.248,1.299,1.894,1.936c17.06,16.854,41.665,26.265,67.507,25.806c32.046-0.716,52.647-12.413,64.999-25.619V349.147
		c-14.978-17.188-38.005-26.255-68.476-26.957l-0.13-0.004c-17.179-0.543-42.438,5.554-61.978,24.31
		c-1.324,1.271-2.597,2.581-3.816,3.929V458.592z M480.879,459.631c1.542,1.753,3.162,3.439,4.859,5.052
		c21.863,20.765,53.1,26.003,87.955,14.749l14.565-4.703l2.37,8.211l52.365-0.004v-13.584
		c-13.581-18.192-20.617-39.916-20.493-63.667c0.223-24.88,7.247-47.238,20.493-65.69v-67.542l-55.111,0.004v60.432l-19.536-6.53
		c-8.871-2.965-17.737-4.353-26.352-4.104c-28.026,0.928-50.275,10.733-64.694,28.116c2.449,8.503,3.832,18.347,3.578,29.724
		V459.631z M312.52,482.939l38.898-0.004V377.396l0.731-2.241c2.866-8.79,11.119-14.449,21.05-14.449c0.051,0,0.101,0,0.15,0
		c10.385,0.077,18.362,6.18,20.848,15.927l0.459,1.803v104.429l56.556-0.002v-13.099c-21.587-30.923-27.53-72.878-13.954-108.595
		c1.875-4.932,4.086-9.666,6.613-14.175c-3.96-6.625-9.508-11.974-16.625-16.006c-19.903-11.275-47.005-8.799-64.166-3.25
		l-14.799,4.785l-1.618-5.954h-5.211l-28.933,7.818V482.939z M251.373,482.939l13.955-0.004V345.799h-39.021v89.568L251.373,482.939
		z M29.668,482.802h0.004l58.911,0.062v-0.004c0.044-16.858,0.083-33.724,0.122-50.582l0.012-5.547l7.071-8.187l14.047-16.088
		l43.502,80.348l0.004-0.001h43.299v-40.097l-46.634-88.511l6.376-7.629c13.417-16.055,26.839-32.111,40.258-48.165v-27.399h-44.674
		l-63.244,71.85l-0.004-114.158h-59.05v254.111V482.802z M836.729,482.808l53.55-0.002l0.076-86.974
		c0.132-10.729,3.523-18.761,10.079-23.874c12.902-10.044,33.802-5.401,36.146-4.838l0.003,0.001v-42.054
		c-11.213-2.042-21.588-1.047-30.836,2.957l-16.29,7.051l-1.995-8.367l-50.733,0.062l0.001,12.361
		c25.119,36.96,18.98,80.746,18.141,85.934l-4.022,24.927h-2.83c-2.487,6.573-6.184,13.783-11.288,20.948V482.808z M185.521,357.959
		l11.118,21.101v-34.402C192.934,349.092,189.228,353.526,185.521,357.959z M434.397,301.438c2.538,1.113,5.032,2.356,7.472,3.738
		c6.131,3.474,13.933,9.04,20.946,17.501c4.352-4.104,9.08-7.833,14.153-11.142c18.011-11.75,39.583-18.121,64.119-18.933
		c5.686-0.156,11.407,0.168,17.128,0.978v-25.622L434.397,301.438z M236.444,297.04h28.884v-0.138h17.463v-26.034h-24.467
		L236.444,297.04z M331.674,296.902h5.838l260.823-70.525c25.714-6.895,40.589-35.129,33.159-62.939L597.436,36.333l-266.429,71.38
		c-25.722,6.919-40.599,35.165-33.149,62.961L331.674,296.902z M449.237,932.459l-25.792-0.4c-2.444-0.037-5.375-0.129-8.594-0.549
		c-28.363-3.734-43.189-16.102-49.602-41.355c-1.898-7.523-4.252-16.855,10.247-179.008l0.729-8.178
		c0.312-3.492,0.556-6.25,0.64-7.443l0.106-1.43l0.366-2.279l5.362-30.287l30.688,5.992c9.714,2.266,17.196,6.947,22.243,13.91
		c8.743,12.041,11.887,32.793,16.81,111.012c2.461,39.391,3.336,97.988,0.774,114.506L449.237,932.459z M406.466,697.542
		l-0.01,0.127c-0.099,1.408-0.329,4-0.677,7.924l-0.732,8.203c-9.324,104.262-13.037,161.15-11.037,169.078
		c2.678,10.545,5.146,16.646,24.689,19.221c1.709,0.221,3.508,0.277,5.193,0.301l0.01-0.004c1.822-11.758,1.689-63.953-1.068-108.09
		c-2.668-42.377-5.954-88.203-11.216-95.449c-0.722-0.994-2.312-1.791-4.737-2.383l-0.229-0.045L406.466,697.542z M550.38,448.698
		c-0.443,0-0.891-0.007-1.341-0.022c-13.07-0.349-23.471-7.24-29.293-19.41c-1.466-3.065-2.632-6.444-3.492-10.115h-1.779v-14.699
		c-0.001-0.046-0.002-0.092-0.004-0.138l-0.352-14.829l2.182-0.052c1.956-7.992,5.618-16.083,11.619-22.022
		c5.705-5.639,12.758-8.495,20.97-8.495c0.099,0,0.195,0,0.294,0.001c9.155,0.021,17.19,3.29,23.242,9.456
		c8.119,8.237,12.108,20.829,11.839,37.405c-0.154,14.919-4.55,27.301-12.378,34.774
		C566.235,445.957,559.002,448.698,550.38,448.698z M544.143,404.073c0.163,5.146,1,9.533,2.366,12.39
		c1.197,2.503,1.959,2.522,3.339,2.558l0.125,0.003c0.83,0.029,1.325-0.033,1.563-0.078c0.912-1.085,2.979-5.258,3.064-13.563
		c0.152-9.342-1.696-14.555-3.324-16.208c-0.217-0.22-0.581-0.591-2.18-0.591l-0.147,0c-0.1-0.001-0.178,0-0.247,0.002
		C546.514,390.857,544.199,397.52,544.143,404.073z M737.777,392.922l-28.579-7.957l-0.029-29.66c0.003,0,0.007,0,0.011,0
		l63.685-0.061c0.005,0,0.01,0,0.015,0l0.014,29.667h-0.014l-28.693,5.288c0.217,0.209,0.448,0.381,0.643,0.462
		c-0.008-0.002-0.74-0.3-2.649-0.3c-2.366,0-3.499,0.439-3.71,0.592c-0.217,0.268-0.523,1.37-0.689,1.962
		C737.778,392.918,737.778,392.92,737.777,392.922z"/>
	<g>
		<path fill="#683026" d="M135.63,601.155c-16.806,2.516-50.612,10.225-55.945,26.873c-5.378,16.66,1.063,41.363,17.751,116.033
			c16.659,74.68,29.105,117.35,25.255,130.525c-3.771,12.898-6.973,24.174-25.831,26.313c-18.809,2.189-26.362-9.631-35.502-2.139
			c-9.116,7.518-11.813,20.965-3.189,29.549c8.595,8.613,34.799,35.994,104.721,25.25c66.861-10.277,84.08-42.973,83.532-61.742
			c-0.271-9.92-27.958-206.842-33.884-241.766c-5.927-34.934-11.31-46.752-23.65-50.508
			C176.508,595.772,160.874,597.407,135.63,601.155"/>
	</g>
	<g>
		<path fill="#683026" d="M132.575,962.807c-0.001,0-0.001,0-0.002,0c-49.613,0-70.863-21.328-78.863-29.357l-0.345-0.346
			c-4.962-4.939-7.522-11.533-7.193-18.553c0.374-7.975,4.335-15.641,10.869-21.025c3.299-2.705,6.985-4.07,10.974-4.07
			c3.66,0,6.987,1.088,10.511,2.24c4.048,1.324,8.233,2.693,13.664,2.693c1.269,0,2.576-0.078,3.885-0.23
			c14.299-1.621,16.339-8.604,20.045-21.277l0.059-0.201c2.348-8.033-4.268-36.24-13.425-75.279
			c-3.563-15.195-7.603-32.416-11.94-51.863c-1.484-6.639-2.887-12.885-4.208-18.764c-14.098-62.75-18.847-83.889-13.378-100.83
			c6.775-21.148,45.194-29.074,61.398-31.5c15.919-2.365,27.757-3.828,37.593-3.828c7.167,0,13.267,0.797,18.646,2.436
			c16.933,5.154,22.638,22.119,28.363,55.863c5.488,32.348,33.668,231.451,33.977,242.717c0.393,13.438-6.397,27.727-18.631,39.191
			c-15.734,14.75-39.506,24.656-70.653,29.443C152.947,961.952,142.399,962.807,132.575,962.807z M68.015,903.028
			c-0.586,0-1.251,0.074-2.354,0.98c-3.517,2.898-5.74,7.084-5.932,11.18c-0.104,2.223,0.371,5.471,3.227,8.313l0.369,0.369
			c6.911,6.938,25.271,25.365,69.249,25.365c0.001,0,0.001,0,0.002,0c9.137,0,18.989-0.801,29.283-2.383
			c62.382-9.59,78.242-38.982,77.779-54.836c-0.265-9.365-27.74-205.172-33.792-240.83c-5.956-35.109-11.05-42.75-18.935-45.15
			c-4.138-1.262-8.806-1.848-14.693-1.848c-9.002,0-20.292,1.408-35.592,3.68c-22.664,3.393-47.068,11.582-50.479,22.23
			c-4.334,13.43,0.576,35.287,13.699,93.701c1.322,5.885,2.727,12.135,4.212,18.781c4.322,19.377,8.353,36.561,11.908,51.721
			c11.045,47.088,16.588,70.725,13.237,82.188l-0.059,0.201c-3.88,13.271-8.277,28.316-31.521,30.951
			c-1.809,0.211-3.645,0.318-5.435,0.318c-7.594,0-13.298-1.865-17.883-3.363C71.734,903.754,69.512,903.028,68.015,903.028z"/>
	</g>
	<g>
		<path fill="#683026" d="M528.314,688.731c-15.219-17.387-42.091-30.801-86.24-33.486c-44.108-2.713-100.43-0.908-126.267,6.082
			c-15.099,4.08-44.636,11.795-51.07,35.463c-6.485,23.615-12.934,156.855-13.47,181.559c-0.527,24.729,4.847,51.047,37.097,69.844
			c32.295,18.822,59.788,27.035,105.984,29.551c53.675,2.912,130.73-15.576,141.482-42.975
			c10.733-27.395,13.465-89.182,13.986-135.379C550.354,753.2,543.274,705.805,528.314,688.731 M433.102,920.266
			c-2.674,9.662-18.836,19.869-39.262,17.166c-20.453-2.664-25.576-9.295-29.078-23.098c-3.81-15.164,11.316-173.492,12.375-187.449
			c1.096-13.975,5.881-20.541,12.395-22.592c8.606-2.658,25.299-2.818,30.493,4.336c6.913,9.537,9.838,56.377,12.547,99.363
			C435.252,850.948,435.771,910.592,433.102,920.266"/>
	</g>
	<g>
		<path fill="#683026" d="M405.85,984.829c-0.006,0-0.004,0-0.009,0c-4.065,0-8.056-0.104-11.859-0.311
			c-46.229-2.518-74.761-10.488-109.034-30.463c-37.256-21.715-40.936-53.689-40.464-75.852
			c0.511-23.559,6.82-158.121,13.711-183.211c7.375-27.127,39.747-35.869,55.304-40.072l0.539-0.145
			c17.406-4.709,49.956-7.521,87.068-7.521c14.128,0,28.438,0.42,41.386,1.217c41.772,2.543,72.367,14.584,90.929,35.791
			c17.842,20.361,23.674,72.863,23.182,115.205c-0.776,68.93-5.639,115.283-14.451,137.775
			C529.965,968.293,455.166,984.829,405.85,984.829z M401.105,660.825c-35.982,0-67.207,2.637-83.525,7.053l-0.543,0.146
			c-14.124,3.814-40.414,10.914-45.751,30.545c-6.088,22.166-12.634,152.254-13.234,179.926
			c-0.46,21.574,3.188,46.033,33.729,63.836c32.186,18.758,59.121,26.25,102.937,28.637c3.559,0.191,7.302,0.289,11.124,0.289
			c0.002,0,0.006,0,0.009,0c55.707,0,115.803-18.936,123.664-38.967c8.094-20.658,12.769-66.643,13.518-132.977
			c0.572-49.285-7.394-91.926-19.822-106.109c-16.087-18.381-43.523-28.871-81.547-31.186
			C428.983,661.239,414.961,660.825,401.105,660.825z M400.478,944.659c-2.488,0-5.021-0.168-7.528-0.5
			c-24.012-3.127-30.744-12.309-34.765-28.154c-2.442-9.723,0.77-61.479,10.736-173.08c0.745-8.336,1.283-14.361,1.449-16.551
			c1.235-15.766,6.997-25.367,17.126-28.553c4.121-1.273,9.409-1.998,14.541-1.998c6.378,0,17.908,1.146,23.479,8.82
			c7.501,10.35,10.216,45.592,13.795,102.402l0.033,0.52c2.369,37.965,3.538,102.77,0.299,114.508
			C436.079,934.95,419.242,944.659,400.478,944.659z M402.037,709.395c-3.773,0-7.699,0.518-10.502,1.383
			c-5.357,1.686-7.111,9.979-7.634,16.639c-0.172,2.264-0.686,8.014-1.462,16.717c-9.301,104.129-13.033,160.838-11.097,168.549
			c2.792,11.002,5.688,15.717,23.373,18.021c1.933,0.256,3.866,0.383,5.762,0.383c14.545,0,24.655-7.467,26.084-12.631
			c2.127-7.707,2.14-63.525-0.764-110.041l-0.032-0.516c-2.192-34.795-5.505-87.381-11.235-95.287
			C413.406,711.065,409.017,709.395,402.037,709.395z"/>
	</g>
	<g>
		<path fill="#683026" d="M584.287,567.327c-9.882,3.279-23.229,8.691-19.988,44.689c3.217,36,17.839,120.762,17.285,144.955
			c-0.53,24.152-4.846,44.029-11.864,64.463c-6.14,17.961-16.133,41.898-15.047,56.945c1.078,15.016,12.378,24.143,36.593,33.84
			c24.227,9.66,50.035,12.879,62.413-3.223c12.356-16.139,22.587-46.762,32.778-67.152c10.234-20.41,33.994-43.898,55.427-66.086
			C776.456,740,849.688,678.84,854.565,665.387c4.835-13.41-7.638-27.123-31.452-37.906c-22.337-10.131-54.355-17.193-76.931-1.598
			c-22.585,15.564-73.19,95.076-81.791,99.385c-8.546,4.275-4.798-35.453-2.665-62.309c2.149-26.883,5.666-63.604-10.036-78.064
			C637.738,572.006,600.42,561.981,584.287,567.327"/>
		<path fill="#683026" d="M626.912,927.053c-11.123,0-23.961-2.869-38.159-8.529c-23.488-9.406-39.419-19.748-40.849-39.658
			c-0.996-13.795,5.837-32.84,11.866-49.643c1.261-3.516,2.451-6.834,3.528-9.984c7.485-21.793,11.031-41.039,11.502-62.416
			c0.316-13.828-4.87-50.703-9.444-83.238c-3.341-23.75-6.495-46.182-7.815-60.965c-3.348-37.178,9.85-46.836,24.609-51.734
			c3.633-1.203,8.074-1.813,13.206-1.813c18.536,0,47.445,8.373,60.938,20.838c17.627,16.232,14.731,52.141,12.404,80.992
			l-0.621,7.738c-1.03,12.766-2.756,34.131-2.152,45.426c5.124-6.287,12.912-16.891,20.038-26.594
			c19.746-26.887,42.127-57.363,56.367-67.178c9.901-6.84,21.992-10.309,35.93-10.309c14.645,0,31.569,4.018,47.655,11.314
			c28.275,12.803,41.046,29.711,35.033,46.387c-3.328,9.18-24.295,28.713-61.065,62.447c-19.361,17.762-39.383,36.129-53.122,50.34
			c-1.967,2.035-3.956,4.086-5.953,6.143c-19.398,19.992-39.459,40.664-48.285,58.268c-3.396,6.795-6.797,14.756-10.396,23.186
			c-7.089,16.6-14.419,33.764-23.061,45.051C652.057,922.239,640.94,927.053,626.912,927.053z M595.356,572.645
			c-3.627,0-6.717,0.389-8.935,1.123c-8.111,2.691-18.209,6.041-15.364,37.641c1.291,14.443,4.423,36.711,7.737,60.287
			c4.875,34.662,9.916,70.504,9.573,85.43c-0.501,22.832-4.273,43.346-12.23,66.512c-1.106,3.238-2.314,6.605-3.594,10.17
			c-5.298,14.768-11.893,33.146-11.104,44.084c0.688,9.584,6.34,17.613,32.349,28.029c12.404,4.945,23.861,7.563,33.123,7.563
			c9.793,0,16.989-2.9,21.387-8.623c7.598-9.924,14.588-26.291,21.348-42.121c3.682-8.619,7.159-16.764,10.74-23.928
			c9.769-19.482,30.568-40.916,50.683-61.645c1.989-2.051,3.972-4.092,5.935-6.123c14.023-14.506,34.197-33.012,53.705-50.91
			c23.202-21.285,54.98-50.439,57.479-57.063c3.256-9.031-7.162-20.029-27.873-29.408c-14.368-6.516-29.302-10.105-42.054-10.105
			c-11.13,0-20.624,2.662-28.222,7.91c-12.364,8.52-35.93,40.609-53.137,64.039c-18.13,24.688-24.883,33.531-29.472,35.828
			c-3.739,1.869-7.998,1.098-10.741-1.875c-5.571-6.039-5.403-21.473-2.139-61.91l0.621-7.736
			c1.979-24.549,4.689-58.166-8.079-69.926C637.321,580.858,612.665,572.645,595.356,572.645z"/>
		<path fill="#FFC844" d="M162.763,585.338c-16.792,2.502-50.551,10.23-55.956,26.877c-5.367,16.662,1.096,41.357,17.768,116.033
			c16.676,74.652,29.144,117.344,25.283,130.549c-3.75,12.875-7.018,24.152-25.815,26.307c-18.819,2.139-26.374-9.67-35.514-2.154
			c-9.148,7.521-11.835,20.951-3.233,29.541c8.591,8.604,34.809,36.002,104.783,25.262c66.855-10.303,84.053-42.979,83.504-61.787
			c-0.277-9.881-27.98-206.824-33.89-241.723c-5.904-34.91-11.272-46.762-23.683-50.518
			C203.659,579.981,188.057,581.577,162.763,585.338"/>
		<path fill="#683026" d="M159.77,945.299c-0.002,0-0.004,0-0.005,0c-48.948,0-69.853-20.971-77.722-28.863l-0.348-0.35
			c-4.623-4.617-6.997-10.76-6.682-17.293c0.362-7.492,4.11-14.699,10.284-19.773c3.02-2.484,6.261-3.691,9.906-3.691
			c3.393,0,6.602,1.051,9.998,2.162c3.996,1.307,8.524,2.789,14.258,2.789c1.311,0,2.659-0.078,4.008-0.23
			c15.416-1.768,17.835-10.07,21.495-22.639c2.494-8.531-4.18-36.947-13.415-76.275c-3.564-15.172-7.604-32.369-11.938-51.777
			c-1.527-6.842-2.969-13.264-4.324-19.299c-13.929-62.047-18.621-82.949-13.321-99.404c6.591-20.295,44.188-27.984,60.049-30.348
			c15.783-2.348,27.532-3.801,37.319-3.801c7.092,0,12.861,0.746,18.154,2.352c16.13,4.879,21.63,21.473,27.222,54.537
			c5.482,32.375,33.646,231.266,33.96,242.428c0.179,6.135-1.225,22.125-18.081,37.938c-15.468,14.51-38.93,24.273-69.734,29.021
			C179.964,944.452,169.506,945.299,159.77,945.299z M95.204,885.502c-0.92,0-1.974,0.168-3.444,1.377
			c-3.902,3.207-6.363,7.846-6.583,12.404c-0.125,2.568,0.419,6.318,3.713,9.607l0.36,0.361
			c7.053,7.076,25.789,25.871,70.516,25.873c0,0,0.002,0,0.004,0c9.222,0,19.159-0.809,29.537-2.4
			c63.529-9.791,79.669-40.191,79.19-56.611c-0.26-9.258-27.76-205.225-33.821-241.023c-6.124-36.209-11.373-43.844-20.139-46.496
			c-4.312-1.307-9.142-1.914-15.205-1.914c-9.161,0-20.499,1.412-35.821,3.689c-21.456,3.199-47.915,11.252-51.865,23.418
			c-4.447,13.803,0.458,35.65,13.567,94.043c1.355,6.039,2.798,12.465,4.327,19.311c4.323,19.354,8.354,36.521,11.911,51.668
			c10.654,45.363,16.523,70.352,13.289,81.416c-3.745,12.857-7.979,27.396-30.119,29.932c-1.732,0.197-3.467,0.297-5.16,0.297
			c-7.356,0.002-12.938-1.826-17.424-3.293C99.321,886.27,96.975,885.502,95.204,885.502z"/>
		<path fill="#FFC844" d="M555.47,672.891c-15.213-17.357-42.115-30.773-86.217-33.477c-44.125-2.674-100.447-0.891-126.273,6.078
			c-15.12,4.119-44.641,11.84-51.098,35.484c-6.447,23.627-12.916,156.838-13.459,181.586c-0.544,24.686,4.852,51.025,37.108,69.822
			c32.272,18.787,59.766,27.027,105.969,29.549c53.678,2.924,130.73-15.58,141.513-42.967
			c10.735-27.389,13.453-89.182,14.003-135.385C577.531,737.374,570.391,689.995,555.47,672.891 M460.251,904.438
			c-2.686,9.693-18.83,19.879-39.283,17.188c-20.449-2.697-25.54-9.34-29.028-23.096c-3.849-15.16,11.282-173.504,12.361-187.479
			c1.092-13.99,5.884-20.549,12.363-22.576c8.623-2.68,25.332-2.795,30.529,4.332c6.896,9.537,9.836,56.389,12.527,99.365
			C462.412,835.151,462.928,894.768,460.251,904.438"/>
	</g>
	<path fill="#683026" d="M433.033,967.325c-0.005,0-0.003,0-0.01,0c-4.047,0-8.018-0.104-11.801-0.311
		c-45.881-2.504-74.208-10.414-108.25-30.232c-36.119-21.047-40.154-50.779-39.636-74.332
		c0.497-22.654,6.941-158.275,13.637-182.813c7.134-26.117,37.638-34.418,54.026-38.879l0.643-0.176
		c17.271-4.66,49.699-7.439,86.757-7.439c14.042,0,28.275,0.412,41.161,1.195c41.291,2.529,71.481,14.373,89.734,35.199
		c17.552,20.119,23.255,74.039,22.808,114.104c-0.818,68.818-5.647,114.973-14.353,137.182
		C555.803,951.167,481.84,967.325,433.033,967.325z M428.399,643.317c-36.212,0-67.65,2.65-84.095,7.086l-0.634,0.174
		c-14.427,3.926-41.28,11.234-46.882,31.74c-6.092,22.324-12.672,152.654-13.28,180.357c-0.486,22.049,3.243,47.053,34.584,65.314
		c32.477,18.908,59.609,26.461,103.685,28.867c3.599,0.195,7.384,0.295,11.247,0.295c0.004,0,0.007,0,0.01,0
		c56.276,0,117.141-19.461,125.245-40.047c8.137-20.758,12.857-66.951,13.649-133.58c0.554-49.623-7.601-92.74-20.293-107.289
		c-16.391-18.701-44.216-29.385-82.694-31.742C456.261,643.725,442.24,643.317,428.399,643.317z M427.602,927.151
		c-2.41,0-4.866-0.162-7.298-0.482c-23.027-3.037-29.467-11.793-33.295-26.889c-2.432-9.578,0.812-61.473,10.849-173.518
		c0.701-7.828,1.207-13.482,1.372-15.604c1.171-15.004,6.525-24.1,15.915-27.037c3.93-1.223,9.031-1.922,14.006-1.922
		c6.065,0,17.009,1.053,22.153,8.109c7.237,10.012,10.041,46.902,13.495,102.045c2.647,42.299,3.333,103.184,0.355,113.941
		C462.285,916.149,448.149,927.151,427.602,927.151z M429.15,691.874c-3.934,0-8.037,0.547-10.977,1.459
		c-5.021,1.572-7.985,7.668-8.801,18.113c-0.168,2.18-0.677,7.861-1.381,15.725c-9.399,104.922-13.141,162.154-11.122,170.107
		c2.927,11.537,6.152,16.85,24.763,19.303c1.991,0.264,4,0.396,5.969,0.396c15.592,0,26.133-8.072,27.747-13.896
		c2.37-8.564,1.994-67.477-0.706-110.59c-2.334-37.285-5.531-88.35-11.572-96.705C441.342,693.417,435.873,691.874,429.15,691.874z"
		/>
	<g>
		<path fill="#FFC844" d="M611.435,551.497c-9.895,3.301-23.21,8.719-19.965,44.707c3.219,35.984,17.797,120.764,17.271,144.934
			c-0.537,24.189-4.869,44.047-11.843,64.467c-6.132,17.961-16.117,41.9-15.053,56.959c1.075,15.021,12.373,24.17,36.588,33.846
			c24.181,9.646,50.012,12.869,62.375-3.252c12.382-16.102,22.585-46.734,32.837-67.154c10.214-20.398,33.928-43.893,55.396-66.059
			c34.584-35.783,107.824-96.924,112.648-110.342c4.84-13.426-7.617-27.113-31.438-37.93c-22.335-10.141-54.294-17.191-76.924-1.611
			c-22.586,15.596-73.159,95.098-81.771,99.377c-8.612,4.293-4.807-35.461-2.658-62.318c2.133-26.855,5.644-63.57-10.03-78.039
			C664.877,556.182,627.543,546.165,611.435,551.497"/>
		<path fill="#683026" d="M654.033,909.534c-10.75,0-23.713-2.904-37.485-8.4c-22.89-9.146-38.413-19.143-39.776-38.209
			c-0.951-13.441,5.807-32.295,11.769-48.93c1.266-3.529,2.461-6.863,3.544-10.035c7.525-22.037,11.094-41.449,11.569-62.936
			c0.305-13.941-4.656-49.283-9.452-83.461c-3.333-23.74-6.48-46.166-7.799-60.906c-1.55-17.189,0.375-29.582,5.885-37.879
			c4.924-7.416,11.635-10.139,17.539-12.107c3.459-1.145,7.713-1.725,12.654-1.725c18.215,0,46.604,8.195,59.836,20.395
			c16.981,15.674,14.146,51.074,11.867,79.52l-0.646,7.992c-1.183,14.527-3.251,39.9-1.793,49.611
			c4.886-5.461,14.323-18.314,22.837-29.908c18.655-25.406,41.872-57.025,55.855-66.68c9.644-6.641,21.413-10.004,34.986-10.004
			c14.4,0,31.068,3.967,46.932,11.17c27.353,12.42,39.788,28.563,34.119,44.285c-3.148,8.758-25.047,29.143-60.517,61.68
			c-19.403,17.799-39.467,36.201-53.259,50.473c-1.794,1.852-3.601,3.709-5.413,5.574c-19.705,20.271-40.082,41.232-49.093,59.229
			c-3.467,6.904-6.906,14.949-10.549,23.467c-7.029,16.445-14.299,33.449-22.805,44.508
			C678.087,905.065,667.721,909.534,654.033,909.534z M622.48,555.122c-3.798,0-7.065,0.416-9.447,1.205
			c-8.209,2.738-19.465,6.492-16.497,39.42c1.297,14.49,4.426,36.791,7.739,60.402c4.854,34.578,9.873,70.334,9.551,85.098
			c-0.501,22.578-4.236,42.934-12.114,66.002c-1.106,3.242-2.314,6.611-3.593,10.18c-5.625,15.689-11.999,33.473-11.199,44.775
			c0.866,12.105,9.918,20.098,33.4,29.48c12.583,5.021,24.242,7.674,33.713,7.674c10.356,0,18.007-3.129,22.737-9.297
			c7.726-10.045,14.737-26.449,21.52-42.311c3.704-8.666,7.204-16.852,10.809-24.029c9.712-19.398,30.647-40.934,50.893-61.76
			c1.808-1.859,3.609-3.713,5.396-5.557c14.001-14.488,34.18-32.998,53.693-50.896c24.664-22.625,55.361-50.783,57.822-57.627
			c3.593-9.967-7.156-21.77-28.753-31.576c-14.57-6.615-29.744-10.26-42.726-10.26c-11.474,0-21.302,2.762-29.211,8.207
			c-12.569,8.678-36.187,40.84-53.43,64.324c-18.007,24.523-24.689,33.293-28.963,35.418c-3.06,1.525-6.505,0.91-8.748-1.523
			c-5.221-5.664-4.77-22.459-1.675-60.445l0.644-7.98c1.992-24.861,4.72-58.91-8.623-71.227
			C665.373,563.557,640.14,555.122,622.48,555.122z"/>
	</g>
	<path fill="#683026" d="M752.353,859.854c7.356-11.271,45.162-47.26,77.479-60.154c32.294-12.887,61.066-17.451,74.215-3.246
		c9.678,10.439,10.258,31.193,1.104,37.08c-9.14,5.91-25.289,8.619-45.732,7.529c-20.453-1.094-39.781,0-55.956,9.143
		c-16.127,9.117-34.421,20.936-44.097,22.547C749.679,874.364,745.34,870.592,752.353,859.854"/>
	<path fill="#683026" d="M616.797,964.083c11.532-8.252,101.145-60.711,161.932-72.516c60.779-11.84,97.601-13.436,120.234,1.252
		c21.263,13.803,19.635,43.328,11.564,57.84c-8.091,14.494-18.288,24.707-44.652,25.232c-26.367,0.543-43.575-8.59-72.633-12.334
		c-29.042-3.777-66.156-4.326-91.455,1.059c-25.261,5.365-53.789,19.877-68.855,20.42
		C617.891,985.567,601.732,974.829,616.797,964.083"/>
	<path fill="#FFE3AC" d="M822.974,660.639c-5.444,3.629-22.739,23.533-33.313,40.145c-10.568,16.641-36.166,52.359-47.555,59.266
		c-11.353,6.896-28.445,12.555-43.849,4.869c-15.469-7.717-20.742-15.426-20.742-15.426s-1.222,40.986-6.107,58.832
		c-4.875,17.85-21.523,60.871-21.523,60.871s23.157,12.99,26.009,7.324c2.825-5.695,19.097-55.602,37.407-75.906
		c18.248-20.287,50.09-51.674,77.567-79.111c28.855-28.818,57.733-58.045,57.733-58.045S830.312,655.749,822.974,660.639"/>
	<path fill="#FFE3AC" d="M514.568,697.536c0,0,12.181,72.633,14.611,122.557c2.441,49.932-0.816,104.307-0.816,104.307
		s25.639-4.873,29.271-13.816c3.668-8.908,6.913-78.305,5.313-126.596c-1.646-48.291-2.459-67.363-14.666-75.463
		C536.124,700.377,514.568,697.536,514.568,697.536"/>
	<path fill="#FFE3AC" d="M396.731,697.137c0,0-6.896,30.844-10.143,64.109c-3.272,33.275-10.168,155.426-10.168,155.426
		s-24.791-10.971-27.632-25.564c-2.825-14.611,1.634-95.352,4.07-133.502c2.443-38.148,2.022-45.049,11.377-51.949
		C373.597,698.778,396.731,697.137,396.731,697.137"/>
	<path fill="#FFE3AC" d="M179.288,645.924c0,0,16.146-3.807,25.058-6.359c8.905-2.547,22.037-2.984,22.037-2.984
		s15.724,106.383,22.492,153.842c6.807,47.443,11.896,90.67,11.896,90.67l-37.745,7.234c0,0,5.047-13.152,1.667-31.393
		C221.298,838.735,179.288,645.924,179.288,645.924"/>
	<g>
		<defs>
			<path id="SVGID_1_" d="M853.648,799.917c-13.416,5.254-20.864,11.936-20.993,12.051c4.835-0.73,24.856-4.098,37.628-3.627
				c12.785,0.488,26.061,0.742,27.258-4.088c1.207-4.816,0.474-10.357-8.44-10.822c-0.966-0.055-1.951-0.088-2.992-0.088
				C877.396,793.342,865.726,795.186,853.648,799.917"/>
		</defs>
		<clipPath id="SVGID_2_">
			<use xlink:href="#SVGID_1_"  overflow="visible"/>
		</clipPath>
		
			<linearGradient id="SVGID_3_" gradientUnits="userSpaceOnUse" x1="-182.7842" y1="881.2437" x2="-177.1139" y2="881.2437" gradientTransform="matrix(-10.9708 1.9949 -1.9949 -10.9708 663.8086 10826.9844)">
			<stop  offset="0" style="stop-color:#FDFDFD"/>
			<stop  offset="0.1684" style="stop-color:#DACDCA"/>
			<stop  offset="0.383" style="stop-color:#B29590"/>
			<stop  offset="0.5812" style="stop-color:#926A62"/>
			<stop  offset="0.7565" style="stop-color:#7B4A41"/>
			<stop  offset="0.902" style="stop-color:#6D372D"/>
			<stop  offset="1" style="stop-color:#683026"/>
		</linearGradient>
		<polygon clip-path="url(#SVGID_2_)" fill="url(#SVGID_3_)" points="896.631,781.711 829.377,793.94 834.771,823.598 
			902.021,811.37 		"/>
	</g>
	<g>
		<defs>
			<path id="SVGID_4_" d="M801.517,894.846l-4.352,16.881c0,0,18.836-1.229,35.729,0.947c16.871,2.172,33.558,8.203,45.842,9.422
				c12.274,1.168,15.404-4.365,16.401-11.121c0.979-6.73-5.563-12.506-23.434-17.113c-5.184-1.326-13.332-1.795-22.248-1.795
				C827.788,892.067,801.517,894.846,801.517,894.846"/>
		</defs>
		<clipPath id="SVGID_5_">
			<use xlink:href="#SVGID_4_"  overflow="visible"/>
		</clipPath>
		
			<linearGradient id="SVGID_6_" gradientUnits="userSpaceOnUse" x1="-175.938" y1="882.6528" x2="-170.267" y2="882.6528" gradientTransform="matrix(-19.1579 -2.3947 2.3947 -19.1579 -4573.9336 17404.123)">
			<stop  offset="0" style="stop-color:#FDFDFD"/>
			<stop  offset="0.1684" style="stop-color:#DACDCA"/>
			<stop  offset="0.383" style="stop-color:#B29590"/>
			<stop  offset="0.5812" style="stop-color:#926A62"/>
			<stop  offset="0.7565" style="stop-color:#7B4A41"/>
			<stop  offset="0.902" style="stop-color:#6D372D"/>
			<stop  offset="1" style="stop-color:#683026"/>
		</linearGradient>
		<polygon clip-path="url(#SVGID_5_)" fill="url(#SVGID_6_)" points="899.96,892.547 798.684,879.885 793.322,922.782 
			894.595,935.444 		"/>
	</g>
	<path fill="#00AEEF" d="M628.157,177.239c6.416,23.981-6.253,48.401-28.156,54.266l-260.15,70.339L307.4,180.739
		c-6.425-23.982,6.231-48.402,28.151-54.284l260.312-69.746L628.157,177.239z"/>
	<path fill="#00AEEF" d="M334.718,310.758l-34.335-128.139c-7.477-27.907,7.456-56.25,33.286-63.18L601,47.812l34.175,127.547
		c7.468,27.914-7.468,56.248-33.295,63.164L334.718,310.758z M590.726,65.607l-253.294,67.866
		c-18.093,4.855-28.418,25.215-23.015,45.386l30.565,114.071l253.122-68.439c18.106-4.849,28.432-25.202,23.034-45.375
		L590.726,65.607z"/>
	<polygon fill-rule="evenodd" clip-rule="evenodd" points="221.803,283.289 153.989,283.289 90.518,355.395 90.518,240.837 
		31.267,240.837 31.267,495.83 90.385,495.891 90.518,439.454 111.719,415.229 155.368,495.83 220.02,495.83 152.012,366.777 	"/>
	<rect x="228.587" y="283.163" fill="#EF483E" width="56.682" height="45.421"/>
	<rect x="228.587" y="283.163" fill-rule="evenodd" clip-rule="evenodd" fill="#EF483E" width="56.682" height="45.421"/>
	<rect x="228.587" y="339.19" fill="#EF483E" width="56.748" height="156.778"/>
	<rect x="228.587" y="339.19" fill-rule="evenodd" clip-rule="evenodd" fill="#EF483E" width="56.748" height="156.778"/>
	<path fill-rule="evenodd" clip-rule="evenodd" fill="#EF483E" d="M354.129,495.969V390.748c4.026-22.785,39.439-23.97,43.389,0.781
		v104.362h56.758V392.593c1.65-69.924-76.829-62.214-101.92-46.358c-0.857,0.526-2.968-7.184-2.968-7.184h-51.88v156.918H354.129z"
		/>
	<path fill-rule="evenodd" clip-rule="evenodd" fill="#EF483E" d="M894.864,495.83l0.083-87.104
		c0.453-38.328,41.14-30.235,46.375-28.978v-42.203c-31.122-5.666-46.458,13.956-46.458,13.956l-2.829-12.311l-50.911,0.066V495.83
		H894.864z"/>
	<path fill-rule="evenodd" clip-rule="evenodd" fill="#EF483E" d="M746.25,373.296c12.339,0,27.326,5.263,30.821,24.298
		l-63.918,0.061C719.276,375.601,738.054,373.296,746.25,373.296 M826.526,445.852h-56.711c0,0-4.79,15.944-25.671,15.4
		c-30.991-1.046-31.26-28.113-31.26-28.113h117.063c0,0,15.538-96.125-87.437-98.479c-33.114-1.063-86.038,22.774-86.582,83.941
		c-0.272,51.155,44.894,81.561,90.139,80.778C816.573,497.802,826.526,445.852,826.526,445.852"/>
	<path fill-rule="evenodd" clip-rule="evenodd" fill="#EF483E" d="M517.753,417.072c0-19.284,9.864-45.814,34.748-45.554
		c18.699,0,35.813,13.824,35.292,46.935c-0.265,25.15-12.316,43.926-35.292,43.134C521.49,460.806,518.008,427.945,517.753,417.072
		 M591.478,486.995l2.646,8.979h52.605V284.752h-55.313v63.455c-10.141-6.574-26.94-14.018-45.971-13.487
		C410.482,339.19,451.18,548.75,591.478,486.995"/>
	<path fill="#FFFFFF" d="M550.079,218.578l14.729-3.871l-4.714-17.313l9.046-34.189l-16.135,4.248l-3.594,19.489l-12.721-15.214
		l-16.274,4.275l24.925,25.262L550.079,218.578z M506.727,218.605c3.761-0.986,8.851-4.929,6.003-15.402
		c-2.853-10.435-9.298-11.365-13.044-10.374c-3.766,1.002-8.848,4.919-6.008,15.402
		C496.547,218.694,502.967,219.614,506.727,218.605 M496.479,181.121c14.563-3.827,27.084,3.876,30.999,18.21
		c3.917,14.345-3.005,27.172-17.552,31.011c-14.554,3.811-27.072-3.9-31.003-18.25C475.017,197.748,481.936,184.948,496.479,181.121
		 M454.209,243.778l14.766-3.872l-9.543-34.936l13.404-3.534l-3.285-12.053l-41.557,10.961l3.273,12.046l13.41-3.55L454.209,243.778
		z M378.702,251.222l11.804-3.107l3.168,11.604l10.252-2.72l-3.142-11.569l11.771-3.102l-2.748-10.058l-11.797,3.085l-3.15-11.591
		l-10.258,2.724l3.156,11.576l-11.796,3.117L378.702,251.222z M361.316,198.755l14.762-3.893l-9.531-34.927l13.43-3.528
		l-3.295-12.018L335.093,155.3l3.29,12.051l13.413-3.539L361.316,198.755z M544.813,150.194l14.766-3.883l-9.537-34.931
		l13.409-3.518l-3.278-12.04L518.59,106.75l3.301,12.051l13.41-3.544L544.813,150.194z M511.135,141.105l-8.259-13.37l-0.131,0.055
		l-0.692,15.68L511.135,141.105z M491.268,113.933l14.411-3.782l30.273,42.38l-15.285,4.021l-3.86-6.176l-15.221,3.999l-0.315,7.277
		l-14.8,3.911L491.268,113.933z M444.688,176.529l40.354-10.601l-3.274-12.029l-25.637,6.724l-1.59-5.854l22.596-5.949
		l-3.044-11.171l-22.619,5.932l-1.592-5.849l24.898-6.541l-3.302-12.047l-39.628,10.418L444.688,176.529z M403.56,158.994
		l7.721-2.015c2.748-0.715,6.38-2.171,5.212-6.392c-0.791-2.969-2.936-4.221-8.568-2.758l-6.911,1.821L403.56,158.994z
		 M383.217,142.346l28.081-7.382c8.395-2.2,16.857,0.427,19.294,9.31c1.329,4.885,0.455,10.6-3.965,13.691
		c4.437,0.443,8.126,4.115,10.252,9.858c0.821,2.227,2.427,7.815,4.359,9.632l-14.748,3.876c-1.401-2.182-2.311-4.547-3.202-6.945
		c-1.605-4.353-3.284-8.922-9.105-7.394l-7.864,2.078l4.485,16.371l-14.754,3.894L383.217,142.346z"/>
</g>
</svg>
